<svg xmlns="http://www.w3.org/2000/svg" xmlns:xlink="http://www.w3.org/1999/xlink" width="500" zoomAndPan="magnify" viewBox="0 0 375 374.999991" height="500" preserveAspectRatio="xMidYMid meet" version="1.0"><defs><g/><clipPath id="f15ae65caa"><path d="M 115 229 L 221 229 L 221 268 L 115 268 Z M 115 229 " clip-rule="nonzero"/></clipPath><clipPath id="1fa49587e7"><path d="M 174.21875 99.359375 L 292.351562 244.964844 L 141.507812 367.351562 L 23.371094 221.75 Z M 174.21875 99.359375 " clip-rule="nonzero"/></clipPath><clipPath id="4ca7acb657"><path d="M 141.636719 367.472656 L 23.5 221.871094 L 174.347656 99.484375 L 292.480469 245.085938 Z M 141.636719 367.472656 " clip-rule="nonzero"/></clipPath><clipPath id="d1a24d4d22"><path d="M 54 196 L 122 196 L 122 265 L 54 265 Z M 54 196 " clip-rule="nonzero"/></clipPath><clipPath id="637b002bf4"><path d="M 174.21875 99.359375 L 292.351562 244.964844 L 141.507812 367.351562 L 23.371094 221.75 Z M 174.21875 99.359375 " clip-rule="nonzero"/></clipPath><clipPath id="5eb5bb6836"><path d="M 141.636719 367.472656 L 23.5 221.871094 L 174.347656 99.484375 L 292.480469 245.085938 Z M 141.636719 367.472656 " clip-rule="nonzero"/></clipPath><clipPath id="98fd2fe22a"><path d="M 71 225 L 289 225 L 289 289 L 71 289 Z M 71 225 " clip-rule="nonzero"/></clipPath><clipPath id="cfdf76f12e"><path d="M 174.21875 99.359375 L 292.351562 244.964844 L 141.507812 367.351562 L 23.371094 221.75 Z M 174.21875 99.359375 " clip-rule="nonzero"/></clipPath><clipPath id="307d3b17ed"><path d="M 141.636719 367.472656 L 23.5 221.871094 L 174.347656 99.484375 L 292.480469 245.085938 Z M 141.636719 367.472656 " clip-rule="nonzero"/></clipPath><clipPath id="70f4c2dbdb"><path d="M 317.765625 152.6875 L 338.875 152.6875 L 338.875 196.226562 L 317.765625 196.226562 Z M 317.765625 152.6875 " clip-rule="nonzero"/></clipPath><clipPath id="a3ff8242c6"><path d="M 317.765625 155 L 337 155 L 337 194 L 317.765625 194 Z M 317.765625 155 " clip-rule="nonzero"/></clipPath><clipPath id="ca9a8aa94b"><path d="M 317.765625 157 L 334 157 L 334 191 L 317.765625 191 Z M 317.765625 157 " clip-rule="nonzero"/></clipPath><clipPath id="05bc90d631"><path d="M 317.765625 160 L 332 160 L 332 189 L 317.765625 189 Z M 317.765625 160 " clip-rule="nonzero"/></clipPath><clipPath id="1a5c5a31aa"><path d="M 317.765625 162 L 330 162 L 330 187 L 317.765625 187 Z M 317.765625 162 " clip-rule="nonzero"/></clipPath><clipPath id="5af60a8b62"><path d="M 317.765625 165 L 327 165 L 327 184 L 317.765625 184 Z M 317.765625 165 " clip-rule="nonzero"/></clipPath><clipPath id="6741321e9d"><path d="M 317.765625 167 L 325 167 L 325 182 L 317.765625 182 Z M 317.765625 167 " clip-rule="nonzero"/></clipPath><clipPath id="fe5df660bc"><path d="M 296.605469 152.6875 L 317.675781 152.6875 L 317.675781 196.226562 L 296.605469 196.226562 Z M 296.605469 152.6875 " clip-rule="nonzero"/></clipPath><clipPath id="9b992ec1e2"><path d="M 299 155 L 317.675781 155 L 317.675781 194 L 299 194 Z M 299 155 " clip-rule="nonzero"/></clipPath><clipPath id="220bfe1c15"><path d="M 301 157 L 317.675781 157 L 317.675781 191 L 301 191 Z M 301 157 " clip-rule="nonzero"/></clipPath><clipPath id="71edaa7032"><path d="M 303 160 L 317.675781 160 L 317.675781 189 L 303 189 Z M 303 160 " clip-rule="nonzero"/></clipPath><clipPath id="528b4ba2dd"><path d="M 306 162 L 317.675781 162 L 317.675781 187 L 306 187 Z M 306 162 " clip-rule="nonzero"/></clipPath><clipPath id="286445269b"><path d="M 309 165 L 317.675781 165 L 317.675781 184 L 309 184 Z M 309 165 " clip-rule="nonzero"/></clipPath><clipPath id="5a52b557ee"><path d="M 311 167 L 317.675781 167 L 317.675781 182 L 311 182 Z M 311 167 " clip-rule="nonzero"/></clipPath><clipPath id="c1066dae23"><path d="M 57.316406 109.285156 L 78.425781 109.285156 L 78.425781 152.824219 L 57.316406 152.824219 Z M 57.316406 109.285156 " clip-rule="nonzero"/></clipPath><clipPath id="5672562301"><path d="M 57.316406 111 L 76 111 L 76 151 L 57.316406 151 Z M 57.316406 111 " clip-rule="nonzero"/></clipPath><clipPath id="dc59a160d1"><path d="M 57.316406 114 L 74 114 L 74 148 L 57.316406 148 Z M 57.316406 114 " clip-rule="nonzero"/></clipPath><clipPath id="4a9c6df1b8"><path d="M 57.316406 116 L 72 116 L 72 146 L 57.316406 146 Z M 57.316406 116 " clip-rule="nonzero"/></clipPath><clipPath id="ce2c200d17"><path d="M 57.316406 118 L 69 118 L 69 143 L 57.316406 143 Z M 57.316406 118 " clip-rule="nonzero"/></clipPath><clipPath id="ac712711d3"><path d="M 57.316406 121 L 66 121 L 66 141 L 57.316406 141 Z M 57.316406 121 " clip-rule="nonzero"/></clipPath><clipPath id="e520f366b5"><path d="M 57.316406 124 L 64 124 L 64 138 L 57.316406 138 Z M 57.316406 124 " clip-rule="nonzero"/></clipPath><clipPath id="3ba5768ffa"><path d="M 36.15625 109.285156 L 57.226562 109.285156 L 57.226562 152.824219 L 36.15625 152.824219 Z M 36.15625 109.285156 " clip-rule="nonzero"/></clipPath><clipPath id="889305f821"><path d="M 38 111 L 57.226562 111 L 57.226562 151 L 38 151 Z M 38 111 " clip-rule="nonzero"/></clipPath><clipPath id="b15761e67e"><path d="M 41 114 L 57.226562 114 L 57.226562 148 L 41 148 Z M 41 114 " clip-rule="nonzero"/></clipPath><clipPath id="d94d86dbf3"><path d="M 43 116 L 57.226562 116 L 57.226562 146 L 43 146 Z M 43 116 " clip-rule="nonzero"/></clipPath><clipPath id="d3574b70e6"><path d="M 45 118 L 57.226562 118 L 57.226562 143 L 45 143 Z M 45 118 " clip-rule="nonzero"/></clipPath><clipPath id="999dfe2440"><path d="M 48 121 L 57.226562 121 L 57.226562 141 L 48 141 Z M 48 121 " clip-rule="nonzero"/></clipPath><clipPath id="d7ca7bafe5"><path d="M 50 124 L 57.226562 124 L 57.226562 138 L 50 138 Z M 50 124 " clip-rule="nonzero"/></clipPath><clipPath id="7a1ed87ecc"><path d="M 95.554688 69 L 180 69 L 180 143 L 95.554688 143 Z M 95.554688 69 " clip-rule="nonzero"/></clipPath><clipPath id="7f7ef35093"><path d="M 154 37 L 260 37 L 260 76 L 154 76 Z M 154 37 " clip-rule="nonzero"/></clipPath><clipPath id="c8149329dd"><path d="M 233.359375 -62.109375 L 351.496094 83.496094 L 200.648438 205.882812 L 82.515625 60.28125 Z M 233.359375 -62.109375 " clip-rule="nonzero"/></clipPath><clipPath id="39413d44c6"><path d="M 233.359375 -62.109375 L 351.496094 83.496094 L 200.648438 205.882812 L 82.515625 60.28125 Z M 233.359375 -62.109375 " clip-rule="nonzero"/></clipPath><clipPath id="07d2d10786"><path d="M 253 40 L 321 40 L 321 110 L 253 110 Z M 253 40 " clip-rule="nonzero"/></clipPath><clipPath id="b15e810fae"><path d="M 233.359375 -62.109375 L 351.496094 83.496094 L 200.648438 205.882812 L 82.515625 60.28125 Z M 233.359375 -62.109375 " clip-rule="nonzero"/></clipPath><clipPath id="40ad125a11"><path d="M 233.359375 -62.109375 L 351.496094 83.496094 L 200.648438 205.882812 L 82.515625 60.28125 Z M 233.359375 -62.109375 " clip-rule="nonzero"/></clipPath><clipPath id="26fecc6e92"><path d="M 86 16 L 304 16 L 304 80 L 86 80 Z M 86 16 " clip-rule="nonzero"/></clipPath><clipPath id="285c43f90d"><path d="M 233.359375 -62.109375 L 351.496094 83.496094 L 200.648438 205.882812 L 82.515625 60.28125 Z M 233.359375 -62.109375 " clip-rule="nonzero"/></clipPath><clipPath id="e13892b515"><path d="M 233.359375 -62.109375 L 351.496094 83.496094 L 200.648438 205.882812 L 82.515625 60.28125 Z M 233.359375 -62.109375 " clip-rule="nonzero"/></clipPath></defs><g clip-path="url(#f15ae65caa)"><g clip-path="url(#1fa49587e7)"><g clip-path="url(#4ca7acb657)"><path fill="#ffffff" d="M 115.230469 233.484375 C 115.757812 233.289062 116.285156 233.089844 116.8125 232.890625 L 126.847656 229.433594 C 127.261719 229.898438 127.679688 230.367188 128.105469 230.828125 C 150.867188 255.695312 185.0625 269.023438 220.378906 264.054688 C 219.519531 264.285156 218.667969 264.496094 217.792969 264.707031 C 216.53125 265.019531 215.253906 265.304688 213.972656 265.574219 C 202.300781 267.953125 190.679688 268.3125 179.480469 266.867188 C 156.476562 263.914062 135.25 253.390625 119.011719 237.40625 C 117.71875 236.132812 116.460938 234.828125 115.230469 233.484375 Z M 115.230469 233.484375 " fill-opacity="1" fill-rule="evenodd"/></g></g></g><g clip-path="url(#d1a24d4d22)"><g clip-path="url(#637b002bf4)"><g clip-path="url(#5eb5bb6836)"><path fill="#1b468f" d="M 55.113281 196.191406 C 55.617188 196.011719 56.253906 196.046875 57.023438 196.304688 C 58.875 196.898438 61.453125 198.691406 64.5 201.335938 C 64.609375 201.425781 64.714844 201.527344 64.8125 201.617188 C 66.589844 203.171875 68.507812 205 70.523438 207.039062 C 72.085938 208.640625 73.710938 210.359375 75.378906 212.179688 L 79.796875 211.941406 L 88.277344 211.488281 L 94.324219 211.164062 L 94.320312 211.175781 L 105.046875 210.585938 L 111.449219 210.246094 L 113.6875 210.140625 L 116.242188 210.003906 L 116.96875 209.964844 C 118.160156 210 119.328125 210.539062 120.136719 211.53125 C 121.613281 213.355469 121.335938 216.027344 119.511719 217.507812 C 119.328125 217.65625 119.144531 217.785156 118.945312 217.894531 C 118.367188 218.074219 117.78125 218.253906 117.207031 218.441406 C 117.054688 218.488281 116.90625 218.539062 116.753906 218.582031 C 116.550781 218.644531 116.347656 218.699219 116.148438 218.769531 L 104.828125 222.667969 C 100.09375 224.429688 95.441406 226.3125 90.910156 228.308594 C 90.746094 228.378906 90.585938 228.445312 90.421875 228.519531 L 107.378906 249.414062 L 98.113281 256.933594 C 96.335938 255.433594 94.601562 253.886719 92.902344 252.292969 C 90.234375 249.777344 87.652344 247.15625 85.183594 244.425781 L 79.480469 237.394531 C 79.445312 237.449219 79.40625 237.5 79.371094 237.550781 C 76.417969 241.664062 73.550781 245.921875 70.785156 250.285156 L 65.429688 259.234375 L 64.636719 260.558594 C 64.53125 260.738281 64.433594 260.929688 64.328125 261.121094 C 64.253906 261.253906 64.175781 261.390625 64.101562 261.527344 C 63.800781 262.054688 63.5 262.589844 63.203125 263.121094 C 63.054688 263.289062 62.894531 263.445312 62.714844 263.59375 C 60.886719 265.074219 58.210938 264.792969 56.734375 262.972656 C 55.925781 261.976562 55.644531 260.722656 55.851562 259.550781 L 56.042969 258.84375 L 56.699219 256.378906 L 57.265625 254.210938 L 58.570312 249.296875 L 58.914062 248.015625 L 61.699219 237.644531 L 61.691406 237.640625 L 63.253906 231.792969 L 66.585938 219.316406 C 65.144531 217.308594 63.796875 215.367188 62.558594 213.5 C 60.972656 211.113281 59.582031 208.855469 58.425781 206.796875 C 58.359375 206.6875 58.28125 206.558594 58.214844 206.433594 C 56.246094 202.910156 55.03125 200.015625 54.832031 198.082031 C 54.742188 197.277344 54.835938 196.644531 55.113281 196.191406 Z M 55.113281 196.191406 " fill-opacity="1" fill-rule="evenodd"/></g></g></g><g clip-path="url(#98fd2fe22a)"><g clip-path="url(#cfdf76f12e)"><g clip-path="url(#307d3b17ed)"><path fill="#1b468f" d="M 76.121094 233.261719 C 77.179688 234.714844 78.257812 236.148438 79.371094 237.554688 C 81.234375 239.914062 83.171875 242.210938 85.183594 244.429688 C 87.652344 247.160156 90.226562 249.78125 92.902344 252.296875 C 94.597656 253.886719 96.332031 255.433594 98.109375 256.933594 C 128.628906 282.773438 170.273438 294.863281 212.480469 286.234375 C 243.546875 279.882812 269.925781 263.332031 288.832031 240.777344 C 288.402344 241.210938 287.964844 241.640625 287.519531 242.039062 L 286.824219 242.699219 C 286.234375 243.253906 285.628906 243.8125 285.019531 244.359375 C 284.804688 244.546875 284.59375 244.742188 284.375 244.9375 C 284.09375 245.1875 283.820312 245.433594 283.535156 245.675781 C 283.496094 245.707031 283.460938 245.742188 283.421875 245.773438 C 283.179688 245.984375 282.933594 246.203125 282.695312 246.417969 C 282.609375 246.484375 282.527344 246.550781 282.441406 246.625 C 282.300781 246.742188 282.164062 246.863281 282.027344 246.980469 C 281.574219 247.367188 281.113281 247.753906 280.652344 248.144531 L 280.632812 248.160156 C 280.390625 248.355469 280.136719 248.5625 279.890625 248.765625 L 279.480469 249.097656 C 222.285156 295.5 138.308594 286.753906 91.90625 229.5625 C 91.570312 229.148438 91.230469 228.726562 90.902344 228.308594 C 90.742188 228.378906 90.578125 228.449219 90.417969 228.519531 L 103.058594 244.097656 C 103.050781 244.089844 103.035156 244.082031 103.03125 244.074219 C 103.023438 244.070312 103.019531 244.066406 103.011719 244.058594 C 102.808594 243.863281 102.609375 243.660156 102.40625 243.464844 C 101.921875 242.984375 101.453125 242.511719 100.984375 242.027344 C 100.734375 241.785156 100.503906 241.539062 100.265625 241.292969 C 99.828125 240.835938 99.394531 240.390625 98.972656 239.925781 C 98.734375 239.675781 98.496094 239.425781 98.257812 239.160156 C 97.820312 238.679688 97.382812 238.207031 96.949219 237.726562 C 96.742188 237.484375 96.535156 237.257812 96.328125 237.015625 C 95.757812 236.378906 95.207031 235.734375 94.652344 235.078125 C 94.589844 235.003906 94.515625 234.925781 94.449219 234.84375 C 93.84375 234.109375 93.230469 233.378906 92.625 232.632812 C 92.449219 232.390625 92.261719 232.160156 92.078125 231.917969 C 91.667969 231.398438 91.257812 230.878906 90.855469 230.359375 C 90.632812 230.082031 90.421875 229.796875 90.214844 229.507812 C 89.847656 229.015625 89.46875 228.523438 89.101562 228.023438 C 88.898438 227.730469 88.675781 227.441406 88.480469 227.160156 C 88.085938 226.609375 87.707031 226.074219 87.328125 225.535156 C 87.300781 225.5 87.273438 225.453125 87.246094 225.417969 C 82.167969 226.707031 76.933594 227.1875 71.753906 226.882812 C 73.160156 229.058594 74.613281 231.183594 76.121094 233.261719 Z M 76.121094 233.261719 " fill-opacity="1" fill-rule="evenodd"/></g></g></g><g clip-path="url(#70f4c2dbdb)"><path fill="#1b468f" d="M 317.722656 152.691406 C 329.449219 152.984375 338.875 162.589844 338.875 174.382812 C 338.875 186.175781 329.449219 195.785156 317.722656 196.078125 L 317.722656 195.59375 C 329.179688 195.300781 338.390625 185.910156 338.390625 174.382812 C 338.390625 162.859375 329.179688 153.46875 317.722656 153.175781 Z M 317.722656 152.691406 " fill-opacity="0.25" fill-rule="evenodd"/></g><g clip-path="url(#a3ff8242c6)"><path fill="#1b468f" d="M 317.722656 155.289062 C 328.011719 155.582031 336.277344 164.027344 336.277344 174.382812 C 336.277344 184.742188 328.011719 193.1875 317.722656 193.480469 L 317.722656 192.769531 C 327.621094 192.476562 335.566406 184.351562 335.566406 174.382812 C 335.566406 164.417969 327.621094 156.292969 317.722656 156 Z M 317.722656 155.289062 " fill-opacity="0.5" fill-rule="evenodd"/></g><g clip-path="url(#ca9a8aa94b)"><path fill="#1b468f" d="M 317.722656 157.773438 C 326.644531 158.0625 333.792969 165.394531 333.792969 174.382812 C 333.792969 183.375 326.644531 190.707031 317.722656 190.996094 L 317.722656 190.113281 C 326.15625 189.824219 332.914062 182.886719 332.914062 174.382812 C 332.914062 165.882812 326.15625 158.945312 317.722656 158.65625 Z M 317.722656 157.773438 " fill-opacity="0.8" fill-rule="evenodd"/></g><g clip-path="url(#05bc90d631)"><path fill="#1b468f" d="M 317.722656 160.089844 C 325.363281 160.378906 331.480469 166.671875 331.480469 174.382812 C 331.480469 182.09375 325.363281 188.390625 317.722656 188.679688 L 317.722656 187.394531 C 324.65625 187.105469 330.195312 181.386719 330.195312 174.382812 C 330.195312 167.382812 324.65625 161.664062 317.722656 161.375 Z M 317.722656 160.089844 " fill-opacity="1" fill-rule="evenodd"/></g><g clip-path="url(#1a5c5a31aa)"><path fill="#1b468f" d="M 317.722656 162.386719 C 324.097656 162.675781 329.183594 167.941406 329.183594 174.382812 C 329.183594 180.828125 324.097656 186.09375 317.722656 186.378906 Z M 317.722656 162.386719 " fill-opacity="1" fill-rule="evenodd"/></g><g clip-path="url(#5af60a8b62)"><path fill="#00adef" d="M 317.722656 165.296875 C 322.550781 165.515625 326.402344 169.503906 326.402344 174.382812 C 326.402344 179.265625 322.550781 183.253906 317.722656 183.472656 Z M 317.722656 165.296875 " fill-opacity="0.2" fill-rule="evenodd"/></g><g clip-path="url(#6741321e9d)"><path fill="#000000" d="M 317.722656 167.644531 C 321.304688 167.804688 324.164062 170.765625 324.164062 174.382812 C 324.164062 178.003906 321.304688 180.960938 317.722656 181.125 Z M 317.722656 167.644531 " fill-opacity="0.2" fill-rule="evenodd"/></g><g clip-path="url(#fe5df660bc)"><path fill="#1b468f" d="M 317.714844 152.691406 C 305.992188 152.984375 296.566406 162.589844 296.566406 174.382812 C 296.566406 186.175781 305.992188 195.785156 317.714844 196.078125 L 317.714844 195.59375 C 306.261719 195.300781 297.050781 185.910156 297.050781 174.382812 C 297.050781 162.859375 306.261719 153.46875 317.714844 153.175781 Z M 317.714844 152.691406 " fill-opacity="0.25" fill-rule="evenodd"/></g><g clip-path="url(#9b992ec1e2)"><path fill="#1b468f" d="M 317.714844 155.289062 C 307.429688 155.582031 299.164062 164.027344 299.164062 174.382812 C 299.164062 184.742188 307.429688 193.1875 317.714844 193.480469 L 317.714844 192.769531 C 307.820312 192.476562 299.875 184.351562 299.875 174.382812 C 299.875 164.417969 307.820312 156.292969 317.714844 156 Z M 317.714844 155.289062 " fill-opacity="0.5" fill-rule="evenodd"/></g><g clip-path="url(#220bfe1c15)"><path fill="#1b468f" d="M 317.714844 157.773438 C 308.796875 158.0625 301.644531 165.394531 301.644531 174.382812 C 301.644531 183.375 308.796875 190.707031 317.714844 190.996094 L 317.714844 190.113281 C 309.285156 189.824219 302.527344 182.886719 302.527344 174.382812 C 302.527344 165.882812 309.285156 158.945312 317.714844 158.65625 Z M 317.714844 157.773438 " fill-opacity="0.8" fill-rule="evenodd"/></g><g clip-path="url(#71edaa7032)"><path fill="#1b468f" d="M 317.714844 160.089844 C 310.074219 160.378906 303.960938 166.671875 303.960938 174.382812 C 303.960938 182.09375 310.074219 188.390625 317.714844 188.679688 L 317.714844 187.394531 C 310.785156 187.105469 305.246094 181.386719 305.246094 174.382812 C 305.246094 167.382812 310.785156 161.664062 317.714844 161.375 Z M 317.714844 160.089844 " fill-opacity="1" fill-rule="evenodd"/></g><g clip-path="url(#528b4ba2dd)"><path fill="#1b468f" d="M 317.714844 162.386719 C 311.34375 162.675781 306.257812 167.941406 306.257812 174.382812 C 306.257812 180.828125 311.34375 186.09375 317.714844 186.378906 Z M 317.714844 162.386719 " fill-opacity="1" fill-rule="evenodd"/></g><g clip-path="url(#286445269b)"><path fill="#00adef" d="M 317.714844 165.296875 C 312.890625 165.515625 309.035156 169.503906 309.035156 174.382812 C 309.035156 179.265625 312.890625 183.253906 317.714844 183.472656 Z M 317.714844 165.296875 " fill-opacity="0.2" fill-rule="evenodd"/></g><g clip-path="url(#5a52b557ee)"><path fill="#000000" d="M 317.714844 167.644531 C 314.136719 167.804688 311.277344 170.765625 311.277344 174.382812 C 311.277344 178.003906 314.136719 180.960938 317.714844 181.125 Z M 317.714844 167.644531 " fill-opacity="0.2" fill-rule="evenodd"/></g><g clip-path="url(#c1066dae23)"><path fill="#1b468f" d="M 57.273438 109.289062 C 69 109.578125 78.425781 119.1875 78.425781 130.980469 C 78.425781 142.773438 69 152.382812 57.273438 152.675781 L 57.273438 152.191406 C 68.730469 151.898438 77.941406 142.507812 77.941406 130.980469 C 77.941406 119.457031 68.730469 110.066406 57.273438 109.773438 Z M 57.273438 109.289062 " fill-opacity="0.25" fill-rule="evenodd"/></g><g clip-path="url(#5672562301)"><path fill="#1b468f" d="M 57.273438 111.886719 C 67.5625 112.179688 75.828125 120.625 75.828125 130.980469 C 75.828125 141.339844 67.5625 149.785156 57.273438 150.078125 L 57.273438 149.367188 C 67.171875 149.074219 75.117188 140.949219 75.117188 130.980469 C 75.117188 121.015625 67.171875 112.890625 57.273438 112.597656 Z M 57.273438 111.886719 " fill-opacity="0.5" fill-rule="evenodd"/></g><g clip-path="url(#dc59a160d1)"><path fill="#1b468f" d="M 57.273438 114.371094 C 66.195312 114.660156 73.34375 121.992188 73.34375 130.980469 C 73.34375 139.972656 66.195312 147.300781 57.273438 147.59375 L 57.273438 146.710938 C 65.707031 146.421875 72.464844 139.484375 72.464844 130.980469 C 72.464844 122.480469 65.707031 115.542969 57.273438 115.253906 Z M 57.273438 114.371094 " fill-opacity="0.8" fill-rule="evenodd"/></g><g clip-path="url(#4a9c6df1b8)"><path fill="#1b468f" d="M 57.273438 116.6875 C 64.914062 116.976562 71.03125 123.269531 71.03125 130.980469 C 71.03125 138.691406 64.914062 144.988281 57.273438 145.277344 L 57.273438 143.992188 C 64.207031 143.703125 69.746094 137.984375 69.746094 130.980469 C 69.746094 123.980469 64.207031 118.261719 57.273438 117.972656 Z M 57.273438 116.6875 " fill-opacity="1" fill-rule="evenodd"/></g><g clip-path="url(#ce2c200d17)"><path fill="#1b468f" d="M 57.273438 118.984375 C 63.648438 119.273438 68.734375 124.539062 68.734375 130.980469 C 68.734375 137.425781 63.648438 142.691406 57.273438 142.976562 Z M 57.273438 118.984375 " fill-opacity="1" fill-rule="evenodd"/></g><g clip-path="url(#ac712711d3)"><path fill="#00adef" d="M 57.273438 121.894531 C 62.101562 122.113281 65.957031 126.101562 65.957031 130.980469 C 65.957031 135.863281 62.101562 139.851562 57.273438 140.070312 Z M 57.273438 121.894531 " fill-opacity="0.2" fill-rule="evenodd"/></g><g clip-path="url(#e520f366b5)"><path fill="#000000" d="M 57.273438 124.242188 C 60.855469 124.402344 63.714844 127.359375 63.714844 130.980469 C 63.714844 134.601562 60.855469 137.558594 57.273438 137.722656 Z M 57.273438 124.242188 " fill-opacity="0.2" fill-rule="evenodd"/></g><g clip-path="url(#3ba5768ffa)"><path fill="#1b468f" d="M 57.265625 109.289062 C 45.542969 109.578125 36.117188 119.1875 36.117188 130.980469 C 36.117188 142.773438 45.542969 152.382812 57.265625 152.675781 L 57.265625 152.191406 C 45.8125 151.898438 36.601562 142.507812 36.601562 130.980469 C 36.601562 119.457031 45.8125 110.066406 57.265625 109.773438 Z M 57.265625 109.289062 " fill-opacity="0.25" fill-rule="evenodd"/></g><g clip-path="url(#889305f821)"><path fill="#1b468f" d="M 57.265625 111.886719 C 46.980469 112.179688 38.714844 120.625 38.714844 130.980469 C 38.714844 141.339844 46.980469 149.785156 57.265625 150.078125 L 57.265625 149.367188 C 47.371094 149.074219 39.425781 140.949219 39.425781 130.980469 C 39.425781 121.015625 47.371094 112.890625 57.265625 112.597656 Z M 57.265625 111.886719 " fill-opacity="0.5" fill-rule="evenodd"/></g><g clip-path="url(#b15761e67e)"><path fill="#1b468f" d="M 57.265625 114.371094 C 48.347656 114.660156 41.199219 121.992188 41.199219 130.980469 C 41.199219 139.972656 48.347656 147.300781 57.265625 147.59375 L 57.265625 146.710938 C 48.835938 146.421875 42.078125 139.484375 42.078125 130.980469 C 42.078125 122.480469 48.835938 115.542969 57.265625 115.253906 Z M 57.265625 114.371094 " fill-opacity="0.8" fill-rule="evenodd"/></g><g clip-path="url(#d94d86dbf3)"><path fill="#1b468f" d="M 57.265625 116.6875 C 49.628906 116.976562 43.511719 123.269531 43.511719 130.980469 C 43.511719 138.691406 49.628906 144.988281 57.265625 145.277344 L 57.265625 143.992188 C 50.335938 143.703125 44.796875 137.984375 44.796875 130.980469 C 44.796875 123.980469 50.335938 118.261719 57.265625 117.972656 Z M 57.265625 116.6875 " fill-opacity="1" fill-rule="evenodd"/></g><g clip-path="url(#d3574b70e6)"><path fill="#1b468f" d="M 57.265625 118.984375 C 50.894531 119.273438 45.808594 124.539062 45.808594 130.980469 C 45.808594 137.425781 50.894531 142.691406 57.265625 142.976562 Z M 57.265625 118.984375 " fill-opacity="1" fill-rule="evenodd"/></g><g clip-path="url(#999dfe2440)"><path fill="#00adef" d="M 57.269531 121.894531 C 52.441406 122.113281 48.585938 126.101562 48.585938 130.980469 C 48.585938 135.863281 52.441406 139.851562 57.269531 140.070312 Z M 57.269531 121.894531 " fill-opacity="0.2" fill-rule="evenodd"/></g><g clip-path="url(#d7ca7bafe5)"><path fill="#000000" d="M 57.269531 124.242188 C 53.6875 124.402344 50.828125 127.359375 50.828125 130.980469 C 50.828125 134.601562 53.6875 137.558594 57.269531 137.722656 Z M 57.269531 124.242188 " fill-opacity="0.2" fill-rule="evenodd"/></g><path fill="#1b468f" d="M 240.15625 200.949219 C 239 200.132812 237.621094 199.421875 236.113281 198.804688 C 239.128906 195.632812 241.714844 192.007812 244.644531 188.714844 C 254.480469 189.226562 260.308594 193.441406 258.363281 202.015625 C 256.054688 204.105469 253.960938 206.425781 251.679688 208.550781 C 249.574219 210.519531 247.261719 212.148438 244.949219 213.808594 C 246.417969 209.320312 245.488281 204.707031 240.15625 200.949219 " fill-opacity="1" fill-rule="nonzero"/><path fill="#1b468f" d="M 241.433594 85.761719 C 240.011719 84.148438 238.324219 82.847656 236.664062 81.5 C 235.78125 80.78125 234.960938 79.988281 234.007812 79.371094 C 233.183594 78.835938 232.359375 78.328125 231.605469 77.6875 C 231.492188 77.589844 231.410156 77.484375 231.351562 77.378906 C 230.261719 76.722656 229.183594 76.089844 228.25 75.527344 C 213.527344 67.921875 190.839844 70.445312 169.914062 76.128906 C 170.542969 77.390625 171.125 78.675781 171.566406 80.019531 C 171.875 80.964844 172.078125 81.917969 172.175781 82.875 C 197.304688 78.398438 224.480469 77.164062 242.277344 86.6875 C 241.992188 86.382812 241.710938 86.074219 241.433594 85.761719 " fill-opacity="1" fill-rule="nonzero"/><path fill="#1b468f" d="M 270.328125 130.359375 C 269.890625 127.945312 269.449219 125.53125 268.851562 123.152344 C 268.328125 121.058594 267.398438 119.152344 266.710938 117.128906 C 266.398438 116.945312 266.207031 116.617188 266.316406 116.191406 C 265.972656 115.433594 265.601562 114.621094 265.191406 113.726562 C 257.0625 97.839844 232.378906 95.164062 204.132812 99.546875 C 203.03125 104.832031 201.230469 109.914062 199.457031 115.003906 C 246.71875 110.953125 264.46875 122.496094 270.949219 133.351562 C 270.71875 132.359375 270.507812 131.363281 270.328125 130.359375 " fill-opacity="1" fill-rule="nonzero"/><path fill="#1b468f" d="M 271.636719 176.660156 C 271.96875 175.457031 272.503906 174.21875 272.675781 172.984375 C 272.792969 172.121094 272.832031 171.351562 273.320312 170.652344 C 273.601562 169.136719 273.859375 167.640625 274.085938 166.335938 C 276.152344 146.261719 258.441406 139.292969 233.554688 140.339844 C 233.253906 141.179688 232.929688 142.015625 232.578125 142.839844 C 230.054688 148.769531 226.425781 154.082031 222.929688 159.476562 C 256.375 158.734375 271.378906 168.074219 267.679688 187.472656 C 268.101562 186.625 268.507812 185.769531 268.886719 184.890625 C 268.929688 184.789062 268.980469 184.703125 269.039062 184.628906 C 269.777344 181.933594 270.898438 179.363281 271.636719 176.660156 " fill-opacity="1" fill-rule="nonzero"/><path fill="#00adef" d="M 104.089844 110.839844 C 125.917969 103.613281 142.507812 77.410156 133.214844 80.429688 C 109.496094 88.136719 104.089844 110.839844 103.894531 110.894531 C 103.953125 110.878906 104.03125 110.855469 104.089844 110.839844 " fill-opacity="1" fill-rule="nonzero"/><g clip-path="url(#7a1ed87ecc)"><path fill="#00adef" d="M 158.054688 78.476562 C 157.292969 74.328125 152.3125 73.886719 145.054688 77.324219 C 148.371094 74.035156 154.078125 71.613281 158.316406 70.441406 C 173.917969 66.136719 185.203125 71.699219 176.226562 88.191406 C 162.019531 114.296875 118.316406 139.128906 95.574219 142.046875 C 95.574219 142.046875 158.441406 92.457031 158.054688 78.476562 " fill-opacity="1" fill-rule="nonzero"/></g><path fill="#00adef" d="M 101.082031 187.761719 C 125.695312 186.042969 217.023438 132.558594 221.625 88.28125 C 223.488281 70.304688 206.121094 66.691406 200.375 65.707031 C 198.34375 65.363281 195.625 64.964844 193.574219 64.765625 C 172.308594 62.664062 156.679688 68.730469 156.679688 68.730469 C 172.910156 65.050781 207.917969 59.816406 194.734375 90.414062 C 178.578125 123.914062 101.082031 187.761719 101.082031 187.761719 " fill-opacity="1" fill-rule="nonzero"/><path fill="#00adef" d="M 129.203125 225.320312 C 154.261719 227.351562 276.464844 147.761719 255.1875 99.8125 C 254.589844 98.460938 253.585938 96.195312 250.5625 92.824219 C 250.5625 92.824219 247.839844 90.019531 246.886719 89.125 C 240.246094 82.882812 239.769531 82.882812 235.40625 79.898438 C 233.269531 78.570312 230.441406 76.757812 228.25 75.527344 C 237.355469 81.265625 244.230469 89.832031 232.984375 113.460938 C 209.664062 157.761719 129.203125 225.320312 129.203125 225.320312 " fill-opacity="1" fill-rule="nonzero"/><path fill="#00adef" d="M 261.527344 146.183594 C 266.070312 136.566406 270.476562 125.335938 265.191406 113.726562 C 269.105469 122.039062 269.929688 123.914062 272.125 132.152344 C 272.933594 135.195312 273.582031 139.359375 274.117188 142.464844 C 279.414062 183.8125 198.609375 237.894531 170.597656 243.347656 C 170.597656 243.347656 244.945312 177.445312 261.527344 146.183594 " fill-opacity="1" fill-rule="nonzero"/><path fill="#00adef" d="M 233.535156 231.628906 C 248.015625 221.730469 255.542969 212.9375 263.558594 198.09375 C 264.820312 195.761719 266.371094 192.578125 267.457031 190.164062 C 270.457031 182.472656 270.773438 181.671875 272.246094 175.988281 C 272.847656 173.101562 273.644531 169.25 274.085938 166.335938 C 272.980469 171.773438 272.609375 173.605469 268.976562 180.851562 C 249.375 215.25 218.546875 238.5625 201.601562 242.921875 C 201.601562 242.921875 213.148438 245.558594 233.535156 231.628906 " fill-opacity="1" fill-rule="nonzero"/><g fill="#009ccc" fill-opacity="1"><g transform="translate(92.863141, 362.00253)"><g><path d="M 3.6875 -2.453125 L 4.484375 -2.453125 C 5.171875 -2.453125 5.769531 -2.609375 6.28125 -2.921875 C 6.800781 -3.242188 7.207031 -3.675781 7.5 -4.21875 C 7.789062 -4.769531 7.9375 -5.375 7.9375 -6.03125 C 7.9375 -6.707031 7.789062 -7.3125 7.5 -7.84375 C 7.207031 -8.382812 6.800781 -8.8125 6.28125 -9.125 C 5.769531 -9.445312 5.171875 -9.609375 4.484375 -9.609375 L 3.6875 -9.609375 Z M 1.0625 -12.0625 L 4.65625 -12.0625 C 5.5 -12.0625 6.285156 -11.90625 7.015625 -11.59375 C 7.742188 -11.289062 8.378906 -10.867188 8.921875 -10.328125 C 9.472656 -9.785156 9.898438 -9.144531 10.203125 -8.40625 C 10.503906 -7.675781 10.65625 -6.882812 10.65625 -6.03125 C 10.65625 -5.175781 10.503906 -4.382812 10.203125 -3.65625 C 9.898438 -2.925781 9.476562 -2.285156 8.9375 -1.734375 C 8.394531 -1.191406 7.753906 -0.765625 7.015625 -0.453125 C 6.285156 -0.148438 5.5 0 4.65625 0 L 1.0625 0 Z M 1.0625 -12.0625 "/></g></g></g><g fill="#009ccc" fill-opacity="1"><g transform="translate(107.280063, 362.00253)"><g><path d="M 3.734375 -4.3125 L 3.734375 0 L 1.0625 0 L 1.0625 -12.0625 L 5.59375 -12.0625 C 6.238281 -12.0625 6.84375 -11.898438 7.40625 -11.578125 C 7.96875 -11.253906 8.421875 -10.800781 8.765625 -10.21875 C 9.109375 -9.644531 9.28125 -8.972656 9.28125 -8.203125 C 9.28125 -7.523438 9.15625 -6.925781 8.90625 -6.40625 C 8.65625 -5.882812 8.320312 -5.457031 7.90625 -5.125 C 7.5 -4.789062 7.039062 -4.5625 6.53125 -4.4375 L 10 0 L 6.625 0 L 3.75 -4.3125 Z M 5.140625 -9.96875 L 3.734375 -9.96875 L 3.734375 -6.40625 L 5.140625 -6.40625 C 5.535156 -6.40625 5.898438 -6.554688 6.234375 -6.859375 C 6.578125 -7.171875 6.75 -7.617188 6.75 -8.203125 C 6.75 -8.753906 6.578125 -9.1875 6.234375 -9.5 C 5.898438 -9.8125 5.535156 -9.96875 5.140625 -9.96875 Z M 5.140625 -9.96875 "/></g></g></g><g fill="#009ccc" fill-opacity="1"><g transform="translate(120.207754, 362.00253)"><g><path d="M 8.0625 -2.40625 L 8.0625 0 L 1.0625 0 L 1.0625 -12.0625 L 8.0625 -12.0625 L 8.0625 -9.65625 L 3.734375 -9.65625 L 3.734375 -7.265625 L 7.875 -7.265625 L 7.875 -4.84375 L 3.734375 -4.84375 L 3.734375 -2.40625 Z M 8.0625 -2.40625 "/></g></g></g><g fill="#009ccc" fill-opacity="1"><g transform="translate(132.479473, 362.00253)"><g><path d="M 7.625 -4.609375 L 6.109375 -8.90625 L 4.578125 -4.609375 Z M 12.140625 0 L 9.28125 0 L 8.40625 -2.4375 L 3.8125 -2.4375 L 2.953125 0 L 0.09375 0 L 4.984375 -12.0625 L 7.234375 -12.0625 Z M 12.140625 0 "/></g></g></g><g fill="#009ccc" fill-opacity="1"><g transform="translate(147.853741, 362.00253)"><g><path d="M 16.109375 0 L 13.1875 0 L 11.765625 -8.328125 L 9.40625 0 L 6.796875 0 L 4.4375 -8.328125 L 3.015625 0 L 0.09375 0 L 2.4375 -12.0625 L 5.59375 -12.0625 L 8.109375 -3.609375 L 10.609375 -12.0625 L 13.78125 -12.0625 Z M 16.109375 0 "/></g></g></g><g fill="#009ccc" fill-opacity="1"><g transform="translate(167.199291, 362.00253)"><g/></g></g><g fill="#009ccc" fill-opacity="1"><g transform="translate(174.790583, 362.00253)"><g><path d="M 7.703125 -12.0625 L 10.546875 -12.0625 L 10.546875 0 L 7.703125 0 L 7.703125 -4.84375 L 3.734375 -4.84375 L 3.734375 0 L 1.0625 0 L 1.0625 -12.0625 L 3.734375 -12.0625 L 3.734375 -7.265625 L 7.703125 -7.265625 Z M 7.703125 -12.0625 "/></g></g></g><g fill="#009ccc" fill-opacity="1"><g transform="translate(189.544354, 362.00253)"><g><path d="M 10.390625 -6.046875 C 10.390625 -6.679688 10.222656 -7.265625 9.890625 -7.796875 C 9.554688 -8.335938 9.117188 -8.773438 8.578125 -9.109375 C 8.046875 -9.441406 7.460938 -9.609375 6.828125 -9.609375 C 6.210938 -9.609375 5.632812 -9.441406 5.09375 -9.109375 C 4.550781 -8.773438 4.113281 -8.335938 3.78125 -7.796875 C 3.445312 -7.265625 3.28125 -6.679688 3.28125 -6.046875 C 3.28125 -5.429688 3.445312 -4.851562 3.78125 -4.3125 C 4.113281 -3.769531 4.550781 -3.328125 5.09375 -2.984375 C 5.632812 -2.648438 6.210938 -2.484375 6.828125 -2.484375 C 7.460938 -2.484375 8.046875 -2.648438 8.578125 -2.984375 C 9.117188 -3.328125 9.554688 -3.769531 9.890625 -4.3125 C 10.222656 -4.851562 10.390625 -5.429688 10.390625 -6.046875 Z M 13.046875 -6.03125 C 13.046875 -5.207031 12.878906 -4.414062 12.546875 -3.65625 C 12.210938 -2.90625 11.757812 -2.242188 11.1875 -1.671875 C 10.613281 -1.097656 9.953125 -0.644531 9.203125 -0.3125 C 8.460938 0.0078125 7.671875 0.171875 6.828125 0.171875 C 6.003906 0.171875 5.21875 0.0078125 4.46875 -0.3125 C 3.71875 -0.644531 3.050781 -1.097656 2.46875 -1.671875 C 1.894531 -2.242188 1.441406 -2.90625 1.109375 -3.65625 C 0.785156 -4.414062 0.625 -5.207031 0.625 -6.03125 C 0.625 -6.875 0.785156 -7.664062 1.109375 -8.40625 C 1.441406 -9.15625 1.894531 -9.816406 2.46875 -10.390625 C 3.050781 -10.960938 3.71875 -11.414062 4.46875 -11.75 C 5.21875 -12.082031 6.003906 -12.25 6.828125 -12.25 C 7.671875 -12.25 8.460938 -12.082031 9.203125 -11.75 C 9.953125 -11.414062 10.613281 -10.960938 11.1875 -10.390625 C 11.757812 -9.816406 12.210938 -9.15625 12.546875 -8.40625 C 12.878906 -7.664062 13.046875 -6.875 13.046875 -6.03125 Z M 13.046875 -6.03125 "/></g></g></g><g fill="#009ccc" fill-opacity="1"><g transform="translate(206.354665, 362.00253)"><g><path d="M 1.0625 0 L 1.0625 -12.0625 L 3.734375 -12.0625 L 3.734375 -2.40625 L 8.0625 -2.40625 L 8.0625 0 Z M 1.0625 0 "/></g></g></g><g fill="#009ccc" fill-opacity="1"><g transform="translate(218.183159, 362.00253)"><g><path d="M 3.734375 0 L 1.0625 0 L 1.0625 -12.0625 L 3.734375 -12.0625 Z M 3.734375 0 "/></g></g></g><g fill="#009ccc" fill-opacity="1"><g transform="translate(226.129032, 362.00253)"><g><path d="M 3.6875 -2.453125 L 4.484375 -2.453125 C 5.171875 -2.453125 5.769531 -2.609375 6.28125 -2.921875 C 6.800781 -3.242188 7.207031 -3.675781 7.5 -4.21875 C 7.789062 -4.769531 7.9375 -5.375 7.9375 -6.03125 C 7.9375 -6.707031 7.789062 -7.3125 7.5 -7.84375 C 7.207031 -8.382812 6.800781 -8.8125 6.28125 -9.125 C 5.769531 -9.445312 5.171875 -9.609375 4.484375 -9.609375 L 3.6875 -9.609375 Z M 1.0625 -12.0625 L 4.65625 -12.0625 C 5.5 -12.0625 6.285156 -11.90625 7.015625 -11.59375 C 7.742188 -11.289062 8.378906 -10.867188 8.921875 -10.328125 C 9.472656 -9.785156 9.898438 -9.144531 10.203125 -8.40625 C 10.503906 -7.675781 10.65625 -6.882812 10.65625 -6.03125 C 10.65625 -5.175781 10.503906 -4.382812 10.203125 -3.65625 C 9.898438 -2.925781 9.476562 -2.285156 8.9375 -1.734375 C 8.394531 -1.191406 7.753906 -0.765625 7.015625 -0.453125 C 6.285156 -0.148438 5.5 0 4.65625 0 L 1.0625 0 Z M 1.0625 -12.0625 "/></g></g></g><g fill="#009ccc" fill-opacity="1"><g transform="translate(240.545953, 362.00253)"><g><path d="M 7.625 -4.609375 L 6.109375 -8.90625 L 4.578125 -4.609375 Z M 12.140625 0 L 9.28125 0 L 8.40625 -2.4375 L 3.8125 -2.4375 L 2.953125 0 L 0.09375 0 L 4.984375 -12.0625 L 7.234375 -12.0625 Z M 12.140625 0 "/></g></g></g><g fill="#009ccc" fill-opacity="1"><g transform="translate(255.920222, 362.00253)"><g><path d="M 4.59375 0 L 4.59375 -5.765625 L 0.140625 -12.0625 L 3.3125 -12.0625 L 5.921875 -7.90625 L 8.53125 -12.0625 L 11.71875 -12.0625 L 7.265625 -5.765625 L 7.265625 0 Z M 4.59375 0 "/></g></g></g><g fill="#009ccc" fill-opacity="1"><g transform="translate(270.922193, 362.00253)"><g><path d="M 5.75 -1.875 C 6.03125 -1.875 6.335938 -1.914062 6.671875 -2 C 7.003906 -2.09375 7.289062 -2.242188 7.53125 -2.453125 C 7.78125 -2.660156 7.90625 -2.941406 7.90625 -3.296875 C 7.90625 -3.628906 7.773438 -3.894531 7.515625 -4.09375 C 7.265625 -4.300781 6.929688 -4.46875 6.515625 -4.59375 C 6.097656 -4.726562 5.644531 -4.847656 5.15625 -4.953125 C 4.664062 -5.066406 4.171875 -5.203125 3.671875 -5.359375 C 3.171875 -5.523438 2.710938 -5.738281 2.296875 -6 C 1.890625 -6.257812 1.554688 -6.59375 1.296875 -7 C 1.046875 -7.414062 0.921875 -7.945312 0.921875 -8.59375 C 0.921875 -9.21875 1.050781 -9.757812 1.3125 -10.21875 C 1.570312 -10.675781 1.914062 -11.050781 2.34375 -11.34375 C 2.78125 -11.644531 3.265625 -11.867188 3.796875 -12.015625 C 4.335938 -12.171875 4.882812 -12.25 5.4375 -12.25 C 6.257812 -12.25 7.03125 -12.117188 7.75 -11.859375 C 8.476562 -11.597656 9.066406 -11.1875 9.515625 -10.625 C 9.972656 -10.0625 10.210938 -9.316406 10.234375 -8.390625 L 7.671875 -8.390625 C 7.597656 -9.023438 7.378906 -9.460938 7.015625 -9.703125 C 6.648438 -9.941406 6.132812 -10.0625 5.46875 -10.0625 C 5.21875 -10.0625 4.953125 -10.019531 4.671875 -9.9375 C 4.398438 -9.851562 4.164062 -9.71875 3.96875 -9.53125 C 3.769531 -9.351562 3.671875 -9.109375 3.671875 -8.796875 C 3.671875 -8.492188 3.796875 -8.253906 4.046875 -8.078125 C 4.304688 -7.898438 4.644531 -7.75 5.0625 -7.625 C 5.476562 -7.507812 5.929688 -7.398438 6.421875 -7.296875 C 6.921875 -7.191406 7.414062 -7.0625 7.90625 -6.90625 C 8.394531 -6.75 8.847656 -6.535156 9.265625 -6.265625 C 9.679688 -6.003906 10.015625 -5.660156 10.265625 -5.234375 C 10.523438 -4.804688 10.65625 -4.265625 10.65625 -3.609375 C 10.65625 -2.890625 10.507812 -2.28125 10.21875 -1.78125 C 9.9375 -1.289062 9.554688 -0.894531 9.078125 -0.59375 C 8.597656 -0.289062 8.054688 -0.0703125 7.453125 0.0625 C 6.859375 0.207031 6.253906 0.28125 5.640625 0.28125 C 4.753906 0.28125 3.921875 0.128906 3.140625 -0.171875 C 2.367188 -0.472656 1.742188 -0.9375 1.265625 -1.5625 C 0.785156 -2.1875 0.539062 -2.988281 0.53125 -3.96875 L 3.234375 -3.96875 C 3.265625 -3.25 3.53125 -2.71875 4.03125 -2.375 C 4.53125 -2.039062 5.101562 -1.875 5.75 -1.875 Z M 5.75 -1.875 "/></g></g></g><g clip-path="url(#7f7ef35093)"><g clip-path="url(#c8149329dd)"><g clip-path="url(#39413d44c6)"><path fill="#ffffff" d="M 259.765625 71.878906 C 259.238281 72.078125 258.714844 72.277344 258.1875 72.472656 L 248.148438 75.933594 C 247.734375 75.464844 247.316406 74.996094 246.894531 74.539062 C 224.128906 49.667969 189.9375 36.34375 154.617188 41.3125 C 155.476562 41.082031 156.328125 40.867188 157.203125 40.660156 C 158.464844 40.34375 159.742188 40.058594 161.023438 39.792969 C 172.695312 37.414062 184.316406 37.054688 195.515625 38.496094 C 218.519531 41.453125 239.746094 51.972656 255.988281 67.960938 C 257.277344 69.230469 258.539062 70.539062 259.765625 71.878906 Z M 259.765625 71.878906 " fill-opacity="1" fill-rule="evenodd"/></g></g></g><g clip-path="url(#07d2d10786)"><g clip-path="url(#b15e810fae)"><g clip-path="url(#40ad125a11)"><path fill="#1b468f" d="M 319.882812 109.175781 C 319.382812 109.355469 318.742188 109.320312 317.976562 109.0625 C 316.121094 108.46875 313.546875 106.675781 310.496094 104.03125 C 310.386719 103.941406 310.28125 103.839844 310.1875 103.75 C 308.410156 102.195312 306.488281 100.367188 304.476562 98.328125 C 302.910156 96.726562 301.285156 95.007812 299.617188 93.1875 L 295.199219 93.425781 L 286.71875 93.878906 L 280.675781 94.199219 L 280.675781 94.1875 L 269.953125 94.777344 L 263.550781 95.121094 L 261.308594 95.222656 L 258.753906 95.363281 L 258.03125 95.402344 C 256.839844 95.363281 255.667969 94.828125 254.859375 93.832031 C 253.382812 92.011719 253.660156 89.335938 255.484375 87.859375 C 255.667969 87.710938 255.855469 87.582031 256.054688 87.472656 C 256.628906 87.289062 257.214844 87.109375 257.792969 86.921875 C 257.941406 86.878906 258.09375 86.828125 258.242188 86.78125 C 258.445312 86.722656 258.652344 86.667969 258.851562 86.597656 L 270.171875 82.699219 C 274.90625 80.9375 279.554688 79.054688 284.089844 77.058594 C 284.25 76.988281 284.410156 76.921875 284.574219 76.847656 L 267.617188 55.949219 L 276.882812 48.433594 C 278.660156 49.933594 280.394531 51.476562 282.09375 53.074219 C 284.765625 55.585938 287.34375 58.210938 289.8125 60.941406 L 295.515625 67.96875 C 295.554688 67.917969 295.589844 67.867188 295.625 67.8125 C 298.578125 63.699219 301.445312 59.445312 304.210938 55.082031 L 309.566406 46.132812 L 310.359375 44.808594 C 310.464844 44.625 310.5625 44.4375 310.667969 44.246094 C 310.742188 44.113281 310.820312 43.976562 310.894531 43.835938 C 311.195312 43.3125 311.496094 42.777344 311.792969 42.246094 C 311.941406 42.078125 312.105469 41.921875 312.285156 41.773438 C 314.109375 40.292969 316.785156 40.570312 318.261719 42.394531 C 319.070312 43.386719 319.351562 44.644531 319.144531 45.816406 L 318.953125 46.519531 L 318.300781 48.984375 L 317.730469 51.15625 L 316.425781 56.066406 L 316.082031 57.351562 L 313.296875 67.722656 L 313.304688 67.726562 L 311.742188 73.574219 L 308.410156 86.050781 C 309.851562 88.058594 311.199219 90 312.441406 91.863281 C 314.023438 94.253906 315.417969 96.507812 316.574219 98.570312 C 316.640625 98.679688 316.714844 98.804688 316.785156 98.929688 C 318.75 102.457031 319.96875 105.351562 320.164062 107.285156 C 320.253906 108.089844 320.160156 108.722656 319.882812 109.175781 Z M 319.882812 109.175781 " fill-opacity="1" fill-rule="evenodd"/></g></g></g><g clip-path="url(#26fecc6e92)"><g clip-path="url(#285c43f90d)"><g clip-path="url(#e13892b515)"><path fill="#1b468f" d="M 298.875 72.101562 C 297.816406 70.648438 296.738281 69.21875 295.628906 67.8125 C 293.761719 65.453125 291.824219 63.15625 289.816406 60.9375 C 287.347656 58.207031 284.769531 55.582031 282.097656 53.070312 C 280.402344 51.480469 278.664062 49.933594 276.886719 48.429688 C 246.367188 22.589844 204.722656 10.503906 162.515625 19.132812 C 131.449219 25.484375 105.070312 42.035156 86.164062 64.589844 C 86.59375 64.15625 87.03125 63.726562 87.476562 63.324219 L 88.171875 62.667969 C 88.761719 62.113281 89.367188 61.550781 89.976562 61.003906 C 90.191406 60.820312 90.402344 60.625 90.621094 60.429688 C 90.902344 60.179688 91.179688 59.933594 91.460938 59.6875 C 91.5 59.65625 91.535156 59.625 91.574219 59.59375 C 91.816406 59.382812 92.0625 59.164062 92.304688 58.949219 C 92.386719 58.882812 92.46875 58.816406 92.554688 58.742188 C 92.695312 58.625 92.832031 58.503906 92.96875 58.382812 C 93.421875 58 93.886719 57.613281 94.34375 57.222656 L 94.363281 57.207031 C 94.605469 57.011719 94.863281 56.804688 95.105469 56.601562 L 95.515625 56.265625 C 152.710938 9.863281 236.6875 18.609375 283.089844 75.804688 C 283.425781 76.21875 283.765625 76.636719 284.09375 77.058594 C 284.257812 76.984375 284.417969 76.917969 284.582031 76.847656 L 271.9375 61.265625 C 271.945312 61.277344 271.960938 61.285156 271.96875 61.292969 C 271.976562 61.296875 271.980469 61.300781 271.984375 61.308594 C 272.1875 61.503906 272.386719 61.707031 272.59375 61.902344 C 273.074219 62.378906 273.542969 62.855469 274.011719 63.335938 C 274.261719 63.582031 274.492188 63.828125 274.730469 64.074219 C 275.167969 64.53125 275.601562 64.976562 276.023438 65.441406 C 276.265625 65.691406 276.5 65.941406 276.738281 66.207031 C 277.175781 66.6875 277.617188 67.160156 278.046875 67.640625 C 278.253906 67.882812 278.460938 68.109375 278.671875 68.351562 C 279.238281 68.988281 279.789062 69.632812 280.34375 70.285156 C 280.40625 70.363281 280.480469 70.441406 280.546875 70.523438 C 281.152344 71.253906 281.765625 71.988281 282.371094 72.734375 C 282.546875 72.976562 282.734375 73.207031 282.917969 73.445312 C 283.332031 73.96875 283.738281 74.484375 284.140625 75.007812 C 284.363281 75.28125 284.574219 75.566406 284.78125 75.859375 C 285.148438 76.351562 285.527344 76.84375 285.894531 77.34375 C 286.097656 77.636719 286.320312 77.925781 286.515625 78.207031 C 286.914062 78.753906 287.292969 79.292969 287.667969 79.828125 C 287.695312 79.863281 287.722656 79.910156 287.753906 79.945312 C 292.828125 78.65625 298.0625 78.175781 303.246094 78.484375 C 301.839844 76.308594 300.382812 74.179688 298.875 72.101562 Z M 298.875 72.101562 " fill-opacity="1" fill-rule="evenodd"/></g></g></g><g fill="#1b468f" fill-opacity="0.4"><g transform="translate(133.867244, 340.906509)"><g><path d="M 35.3125 -33.640625 L 35.3125 -26.90625 L 21.859375 -26.90625 L 21.859375 0 L 15.140625 0 L 15.140625 -26.90625 L 1.6875 -26.90625 L 1.6875 -33.640625 Z M 35.3125 -33.640625 "/></g></g></g><g fill="#1b468f" fill-opacity="0.4"><g transform="translate(170.857124, 340.906509)"><g><path d="M 35.3125 0 L 8.40625 0 C 7.175781 0 6.046875 -0.300781 5.015625 -0.90625 C 3.992188 -1.507812 3.179688 -2.320312 2.578125 -3.34375 C 1.984375 -4.363281 1.6875 -5.492188 1.6875 -6.734375 L 1.6875 -26.90625 C 1.6875 -28.144531 1.984375 -29.273438 2.578125 -30.296875 C 3.179688 -31.316406 3.992188 -32.128906 5.015625 -32.734375 C 6.046875 -33.335938 7.175781 -33.640625 8.40625 -33.640625 L 35.3125 -33.640625 L 35.3125 -26.90625 L 8.40625 -26.90625 L 8.40625 -6.734375 L 35.3125 -6.734375 Z M 35.3125 0 "/></g></g></g><g fill="#1b468f" fill-opacity="0.4"><g transform="translate(207.847005, 340.906509)"><g><path d="M 35.3125 -33.640625 L 35.3125 -26.90625 L 8.40625 -26.90625 L 8.40625 -20.1875 L 28.59375 -20.1875 C 29.820312 -20.1875 30.945312 -19.882812 31.96875 -19.28125 C 33 -18.675781 33.8125 -17.863281 34.40625 -16.84375 C 35.007812 -15.820312 35.3125 -14.691406 35.3125 -13.453125 L 35.3125 -6.734375 C 35.3125 -5.492188 35.007812 -4.363281 34.40625 -3.34375 C 33.8125 -2.320312 33 -1.507812 31.96875 -0.90625 C 30.945312 -0.300781 29.820312 0 28.59375 0 L 1.6875 0 L 1.6875 -6.734375 L 28.59375 -6.734375 L 28.59375 -13.453125 L 8.40625 -13.453125 C 7.175781 -13.453125 6.046875 -13.753906 5.015625 -14.359375 C 3.992188 -14.960938 3.179688 -15.773438 2.578125 -16.796875 C 1.984375 -17.816406 1.6875 -18.945312 1.6875 -20.1875 L 1.6875 -26.90625 C 1.6875 -28.144531 1.984375 -29.273438 2.578125 -30.296875 C 3.179688 -31.316406 3.992188 -32.128906 5.015625 -32.734375 C 6.046875 -33.335938 7.175781 -33.640625 8.40625 -33.640625 Z M 35.3125 -33.640625 "/></g></g></g><g fill="#1b468f" fill-opacity="1"><g transform="translate(132.008813, 339.048091)"><g><path d="M 35.3125 -33.640625 L 35.3125 -26.90625 L 21.859375 -26.90625 L 21.859375 0 L 15.140625 0 L 15.140625 -26.90625 L 1.6875 -26.90625 L 1.6875 -33.640625 Z M 35.3125 -33.640625 "/></g></g></g><g fill="#1b468f" fill-opacity="1"><g transform="translate(168.998694, 339.048091)"><g><path d="M 35.3125 0 L 8.40625 0 C 7.175781 0 6.046875 -0.300781 5.015625 -0.90625 C 3.992188 -1.507812 3.179688 -2.320312 2.578125 -3.34375 C 1.984375 -4.363281 1.6875 -5.492188 1.6875 -6.734375 L 1.6875 -26.90625 C 1.6875 -28.144531 1.984375 -29.273438 2.578125 -30.296875 C 3.179688 -31.316406 3.992188 -32.128906 5.015625 -32.734375 C 6.046875 -33.335938 7.175781 -33.640625 8.40625 -33.640625 L 35.3125 -33.640625 L 35.3125 -26.90625 L 8.40625 -26.90625 L 8.40625 -6.734375 L 35.3125 -6.734375 Z M 35.3125 0 "/></g></g></g><g fill="#1b468f" fill-opacity="1"><g transform="translate(205.988574, 339.048091)"><g><path d="M 35.3125 -33.640625 L 35.3125 -26.90625 L 8.40625 -26.90625 L 8.40625 -20.1875 L 28.59375 -20.1875 C 29.820312 -20.1875 30.945312 -19.882812 31.96875 -19.28125 C 33 -18.675781 33.8125 -17.863281 34.40625 -16.84375 C 35.007812 -15.820312 35.3125 -14.691406 35.3125 -13.453125 L 35.3125 -6.734375 C 35.3125 -5.492188 35.007812 -4.363281 34.40625 -3.34375 C 33.8125 -2.320312 33 -1.507812 31.96875 -0.90625 C 30.945312 -0.300781 29.820312 0 28.59375 0 L 1.6875 0 L 1.6875 -6.734375 L 28.59375 -6.734375 L 28.59375 -13.453125 L 8.40625 -13.453125 C 7.175781 -13.453125 6.046875 -13.753906 5.015625 -14.359375 C 3.992188 -14.960938 3.179688 -15.773438 2.578125 -16.796875 C 1.984375 -17.816406 1.6875 -18.945312 1.6875 -20.1875 L 1.6875 -26.90625 C 1.6875 -28.144531 1.984375 -29.273438 2.578125 -30.296875 C 3.179688 -31.316406 3.992188 -32.128906 5.015625 -32.734375 C 6.046875 -33.335938 7.175781 -33.640625 8.40625 -33.640625 Z M 35.3125 -33.640625 "/></g></g></g></svg>