<svg xmlns="http://www.w3.org/2000/svg" xmlns:xlink="http://www.w3.org/1999/xlink" width="500" zoomAndPan="magnify" viewBox="0 0 375 374.999991" height="500" preserveAspectRatio="xMidYMid meet" version="1.0"><defs><g/><clipPath id="318d594b54"><path d="M 38 210 L 90 210 L 90 230 L 38 230 Z M 38 210 " clip-rule="nonzero"/></clipPath><clipPath id="f8c9ec9676"><path d="M 67.402344 147.398438 L 125.019531 218.410156 L 51.503906 278.054688 L -6.109375 207.042969 Z M 67.402344 147.398438 " clip-rule="nonzero"/></clipPath><clipPath id="c783fe0e5a"><path d="M 51.496094 278.269531 L -6.117188 207.257812 L 67.394531 147.609375 L 125.011719 218.625 Z M 51.496094 278.269531 " clip-rule="nonzero"/></clipPath><clipPath id="6b2b62a2ac"><path d="M 9 194 L 42 194 L 42 229 L 9 229 Z M 9 194 " clip-rule="nonzero"/></clipPath><clipPath id="5db3e939af"><path d="M 67.402344 147.398438 L 125.019531 218.410156 L 51.503906 278.054688 L -6.109375 207.042969 Z M 67.402344 147.398438 " clip-rule="nonzero"/></clipPath><clipPath id="7d5cee99ab"><path d="M 51.496094 278.269531 L -6.117188 207.257812 L 67.394531 147.609375 L 125.011719 218.625 Z M 51.496094 278.269531 " clip-rule="nonzero"/></clipPath><clipPath id="93df113cc3"><path d="M 17 208 L 124 208 L 124 240 L 17 240 Z M 17 208 " clip-rule="nonzero"/></clipPath><clipPath id="44974c085b"><path d="M 67.402344 147.398438 L 125.019531 218.410156 L 51.503906 278.054688 L -6.109375 207.042969 Z M 67.402344 147.398438 " clip-rule="nonzero"/></clipPath><clipPath id="6b74228123"><path d="M 51.496094 278.269531 L -6.117188 207.257812 L 67.394531 147.609375 L 125.011719 218.625 Z M 51.496094 278.269531 " clip-rule="nonzero"/></clipPath><clipPath id="f62c23ff22"><path d="M 137.46875 173.425781 L 147.773438 173.425781 L 147.773438 194.679688 L 137.46875 194.679688 Z M 137.46875 173.425781 " clip-rule="nonzero"/></clipPath><clipPath id="ccb0d8aa10"><path d="M 137.46875 174 L 147 174 L 147 194 L 137.46875 194 Z M 137.46875 174 " clip-rule="nonzero"/></clipPath><clipPath id="b3c97e1073"><path d="M 137.46875 175 L 146 175 L 146 193 L 137.46875 193 Z M 137.46875 175 " clip-rule="nonzero"/></clipPath><clipPath id="8a3330e5f8"><path d="M 137.46875 177 L 145 177 L 145 191 L 137.46875 191 Z M 137.46875 177 " clip-rule="nonzero"/></clipPath><clipPath id="35181843c8"><path d="M 137.46875 178 L 144 178 L 144 190 L 137.46875 190 Z M 137.46875 178 " clip-rule="nonzero"/></clipPath><clipPath id="2a30d01f22"><path d="M 137.46875 179 L 142 179 L 142 189 L 137.46875 189 Z M 137.46875 179 " clip-rule="nonzero"/></clipPath><clipPath id="2f1a639ac9"><path d="M 137.46875 180 L 141 180 L 141 188 L 137.46875 188 Z M 137.46875 180 " clip-rule="nonzero"/></clipPath><clipPath id="ec0694d5e2"><path d="M 127.140625 173.425781 L 137.425781 173.425781 L 137.425781 194.679688 L 127.140625 194.679688 Z M 127.140625 173.425781 " clip-rule="nonzero"/></clipPath><clipPath id="190db9a5dc"><path d="M 128 174 L 137.425781 174 L 137.425781 194 L 128 194 Z M 128 174 " clip-rule="nonzero"/></clipPath><clipPath id="7974a3243e"><path d="M 129 175 L 137.425781 175 L 137.425781 193 L 129 193 Z M 129 175 " clip-rule="nonzero"/></clipPath><clipPath id="4366a4b6d7"><path d="M 130 177 L 137.425781 177 L 137.425781 191 L 130 191 Z M 130 177 " clip-rule="nonzero"/></clipPath><clipPath id="8235d9d60f"><path d="M 131 178 L 137.425781 178 L 137.425781 190 L 131 190 Z M 131 178 " clip-rule="nonzero"/></clipPath><clipPath id="4b8d209f7d"><path d="M 133 179 L 137.425781 179 L 137.425781 189 L 133 189 Z M 133 179 " clip-rule="nonzero"/></clipPath><clipPath id="e6c421330f"><path d="M 134 180 L 137.425781 180 L 137.425781 188 L 134 188 Z M 134 180 " clip-rule="nonzero"/></clipPath><clipPath id="7052bb9a97"><path d="M 10.339844 152.242188 L 20.644531 152.242188 L 20.644531 173.492188 L 10.339844 173.492188 Z M 10.339844 152.242188 " clip-rule="nonzero"/></clipPath><clipPath id="13d9fda1aa"><path d="M 10.339844 153 L 20 153 L 20 173 L 10.339844 173 Z M 10.339844 153 " clip-rule="nonzero"/></clipPath><clipPath id="22aec1ae9c"><path d="M 10.339844 154 L 19 154 L 19 171 L 10.339844 171 Z M 10.339844 154 " clip-rule="nonzero"/></clipPath><clipPath id="ce219a72e4"><path d="M 10.339844 155 L 18 155 L 18 170 L 10.339844 170 Z M 10.339844 155 " clip-rule="nonzero"/></clipPath><clipPath id="34dcb951b4"><path d="M 10.339844 156 L 16 156 L 16 169 L 10.339844 169 Z M 10.339844 156 " clip-rule="nonzero"/></clipPath><clipPath id="99469e1966"><path d="M 10.339844 158 L 15 158 L 15 168 L 10.339844 168 Z M 10.339844 158 " clip-rule="nonzero"/></clipPath><clipPath id="7d6d838a06"><path d="M 10.339844 159 L 14 159 L 14 167 L 10.339844 167 Z M 10.339844 159 " clip-rule="nonzero"/></clipPath><clipPath id="3736421a66"><path d="M 0.0117188 152.242188 L 10.296875 152.242188 L 10.296875 173.492188 L 0.0117188 173.492188 Z M 0.0117188 152.242188 " clip-rule="nonzero"/></clipPath><clipPath id="4db520f326"><path d="M 1 153 L 10.296875 153 L 10.296875 173 L 1 173 Z M 1 153 " clip-rule="nonzero"/></clipPath><clipPath id="ecb788e88c"><path d="M 2 154 L 10.296875 154 L 10.296875 171 L 2 171 Z M 2 154 " clip-rule="nonzero"/></clipPath><clipPath id="a2cf205d36"><path d="M 3 155 L 10.296875 155 L 10.296875 170 L 3 170 Z M 3 155 " clip-rule="nonzero"/></clipPath><clipPath id="998557759c"><path d="M 4 156 L 10.296875 156 L 10.296875 169 L 4 169 Z M 4 156 " clip-rule="nonzero"/></clipPath><clipPath id="1282d02131"><path d="M 6 158 L 10.296875 158 L 10.296875 168 L 6 168 Z M 6 158 " clip-rule="nonzero"/></clipPath><clipPath id="0231b4aeaa"><path d="M 7 159 L 10.296875 159 L 10.296875 167 L 7 167 Z M 7 159 " clip-rule="nonzero"/></clipPath><clipPath id="584c8efbad"><path d="M 29.003906 132 L 70 132 L 70 169 L 29.003906 169 Z M 29.003906 132 " clip-rule="nonzero"/></clipPath><clipPath id="d37a610ecc"><path d="M 57 117 L 110 117 L 110 136 L 57 136 Z M 57 117 " clip-rule="nonzero"/></clipPath><clipPath id="59feec6c8f"><path d="M 96.269531 68.582031 L 153.886719 139.597656 L 80.375 199.242188 L 22.757812 128.226562 Z M 96.269531 68.582031 " clip-rule="nonzero"/></clipPath><clipPath id="a4f029df8e"><path d="M 96.269531 68.582031 L 153.886719 139.597656 L 80.375 199.242188 L 22.757812 128.226562 Z M 96.269531 68.582031 " clip-rule="nonzero"/></clipPath><clipPath id="9248d9d940"><path d="M 106 118 L 139 118 L 139 153 L 106 153 Z M 106 118 " clip-rule="nonzero"/></clipPath><clipPath id="97e203ea79"><path d="M 96.269531 68.582031 L 153.886719 139.597656 L 80.375 199.242188 L 22.757812 128.226562 Z M 96.269531 68.582031 " clip-rule="nonzero"/></clipPath><clipPath id="75c68dbad6"><path d="M 96.269531 68.582031 L 153.886719 139.597656 L 80.375 199.242188 L 22.757812 128.226562 Z M 96.269531 68.582031 " clip-rule="nonzero"/></clipPath><clipPath id="2e556cdd05"><path d="M 24 106 L 131 106 L 131 138 L 24 138 Z M 24 106 " clip-rule="nonzero"/></clipPath><clipPath id="48218b519e"><path d="M 96.269531 68.582031 L 153.886719 139.597656 L 80.375 199.242188 L 22.757812 128.226562 Z M 96.269531 68.582031 " clip-rule="nonzero"/></clipPath><clipPath id="249dffd715"><path d="M 96.269531 68.582031 L 153.886719 139.597656 L 80.375 199.242188 L 22.757812 128.226562 Z M 96.269531 68.582031 " clip-rule="nonzero"/></clipPath></defs><g fill="#009ccc" fill-opacity="1"><g transform="translate(144.853108, 224.952734)"><g><path d="M 4.125 -2.734375 L 5.03125 -2.734375 C 5.789062 -2.734375 6.457031 -2.910156 7.03125 -3.265625 C 7.613281 -3.628906 8.066406 -4.113281 8.390625 -4.71875 C 8.710938 -5.332031 8.875 -6.007812 8.875 -6.75 C 8.875 -7.507812 8.710938 -8.1875 8.390625 -8.78125 C 8.066406 -9.382812 7.613281 -9.863281 7.03125 -10.21875 C 6.457031 -10.570312 5.789062 -10.75 5.03125 -10.75 L 4.125 -10.75 Z M 1.1875 -13.5 L 5.203125 -13.5 C 6.160156 -13.5 7.046875 -13.328125 7.859375 -12.984375 C 8.671875 -12.640625 9.378906 -12.160156 9.984375 -11.546875 C 10.597656 -10.941406 11.070312 -10.226562 11.40625 -9.40625 C 11.75 -8.59375 11.921875 -7.707031 11.921875 -6.75 C 11.921875 -5.800781 11.75 -4.914062 11.40625 -4.09375 C 11.070312 -3.269531 10.601562 -2.550781 10 -1.9375 C 9.394531 -1.332031 8.679688 -0.859375 7.859375 -0.515625 C 7.046875 -0.171875 6.160156 0 5.203125 0 L 1.1875 0 Z M 1.1875 -13.5 "/></g></g></g><g fill="#009ccc" fill-opacity="1"><g transform="translate(160.989371, 224.952734)"><g><path d="M 4.171875 -4.828125 L 4.171875 0 L 1.1875 0 L 1.1875 -13.5 L 6.25 -13.5 C 6.976562 -13.5 7.65625 -13.316406 8.28125 -12.953125 C 8.914062 -12.585938 9.425781 -12.082031 9.8125 -11.4375 C 10.195312 -10.789062 10.390625 -10.035156 10.390625 -9.171875 C 10.390625 -8.421875 10.25 -7.753906 9.96875 -7.171875 C 9.6875 -6.585938 9.3125 -6.109375 8.84375 -5.734375 C 8.382812 -5.367188 7.875 -5.113281 7.3125 -4.96875 L 11.1875 0 L 7.40625 0 L 4.1875 -4.828125 Z M 5.765625 -11.15625 L 4.171875 -11.15625 L 4.171875 -7.171875 L 5.765625 -7.171875 C 6.203125 -7.171875 6.609375 -7.34375 6.984375 -7.6875 C 7.359375 -8.03125 7.546875 -8.523438 7.546875 -9.171875 C 7.546875 -9.796875 7.359375 -10.28125 6.984375 -10.625 C 6.609375 -10.976562 6.203125 -11.15625 5.765625 -11.15625 Z M 5.765625 -11.15625 "/></g></g></g><g fill="#009ccc" fill-opacity="1"><g transform="translate(175.4588, 224.952734)"><g><path d="M 9.015625 -2.703125 L 9.015625 0 L 1.1875 0 L 1.1875 -13.5 L 9.015625 -13.5 L 9.015625 -10.796875 L 4.171875 -10.796875 L 4.171875 -8.125 L 8.8125 -8.125 L 8.8125 -5.421875 L 4.171875 -5.421875 L 4.171875 -2.703125 Z M 9.015625 -2.703125 "/></g></g></g><g fill="#009ccc" fill-opacity="1"><g transform="translate(189.194025, 224.952734)"><g><path d="M 8.546875 -5.15625 L 6.828125 -9.96875 L 5.125 -5.15625 Z M 13.578125 0 L 10.390625 0 L 9.40625 -2.71875 L 4.265625 -2.71875 L 3.296875 0 L 0.09375 0 L 5.578125 -13.5 L 8.109375 -13.5 Z M 13.578125 0 "/></g></g></g><g fill="#009ccc" fill-opacity="1"><g transform="translate(206.401806, 224.952734)"><g><path d="M 18.03125 0 L 14.75 0 L 13.171875 -9.3125 L 10.53125 0 L 7.609375 0 L 4.96875 -9.3125 L 3.375 0 L 0.09375 0 L 2.71875 -13.5 L 6.25 -13.5 L 9.078125 -4.03125 L 11.875 -13.5 L 15.40625 -13.5 Z M 18.03125 0 "/></g></g></g><g fill="#009ccc" fill-opacity="1"><g transform="translate(228.054477, 224.952734)"><g/></g></g><g fill="#009ccc" fill-opacity="1"><g transform="translate(236.551095, 224.952734)"><g><path d="M 8.625 -13.5 L 11.796875 -13.5 L 11.796875 0 L 8.625 0 L 8.625 -5.421875 L 4.171875 -5.421875 L 4.171875 0 L 1.1875 0 L 1.1875 -13.5 L 4.171875 -13.5 L 4.171875 -8.125 L 8.625 -8.125 Z M 8.625 -13.5 "/></g></g></g><g fill="#009ccc" fill-opacity="1"><g transform="translate(253.064379, 224.952734)"><g><path d="M 11.625 -6.765625 C 11.625 -7.472656 11.4375 -8.125 11.0625 -8.71875 C 10.6875 -9.320312 10.195312 -9.8125 9.59375 -10.1875 C 9 -10.5625 8.347656 -10.75 7.640625 -10.75 C 6.953125 -10.75 6.300781 -10.5625 5.6875 -10.1875 C 5.082031 -9.8125 4.59375 -9.320312 4.21875 -8.71875 C 3.851562 -8.125 3.671875 -7.472656 3.671875 -6.765625 C 3.671875 -6.078125 3.851562 -5.425781 4.21875 -4.8125 C 4.59375 -4.207031 5.082031 -3.71875 5.6875 -3.34375 C 6.300781 -2.96875 6.953125 -2.78125 7.640625 -2.78125 C 8.347656 -2.78125 9 -2.96875 9.59375 -3.34375 C 10.195312 -3.71875 10.6875 -4.207031 11.0625 -4.8125 C 11.4375 -5.425781 11.625 -6.078125 11.625 -6.765625 Z M 14.59375 -6.75 C 14.59375 -5.820312 14.40625 -4.9375 14.03125 -4.09375 C 13.664062 -3.257812 13.160156 -2.519531 12.515625 -1.875 C 11.878906 -1.226562 11.144531 -0.71875 10.3125 -0.34375 C 9.476562 0.0195312 8.585938 0.203125 7.640625 0.203125 C 6.710938 0.203125 5.828125 0.0195312 4.984375 -0.34375 C 4.148438 -0.71875 3.410156 -1.226562 2.765625 -1.875 C 2.128906 -2.519531 1.625 -3.257812 1.25 -4.09375 C 0.875 -4.9375 0.6875 -5.820312 0.6875 -6.75 C 0.6875 -7.6875 0.875 -8.570312 1.25 -9.40625 C 1.625 -10.25 2.128906 -10.988281 2.765625 -11.625 C 3.410156 -12.269531 4.148438 -12.773438 4.984375 -13.140625 C 5.828125 -13.515625 6.710938 -13.703125 7.640625 -13.703125 C 8.585938 -13.703125 9.476562 -13.515625 10.3125 -13.140625 C 11.144531 -12.773438 11.878906 -12.269531 12.515625 -11.625 C 13.160156 -10.988281 13.664062 -10.25 14.03125 -9.40625 C 14.40625 -8.570312 14.59375 -7.6875 14.59375 -6.75 Z M 14.59375 -6.75 "/></g></g></g><g fill="#009ccc" fill-opacity="1"><g transform="translate(271.879463, 224.952734)"><g><path d="M 1.1875 0 L 1.1875 -13.5 L 4.171875 -13.5 L 4.171875 -2.703125 L 9.015625 -2.703125 L 9.015625 0 Z M 1.1875 0 "/></g></g></g><g fill="#009ccc" fill-opacity="1"><g transform="translate(285.118605, 224.952734)"><g><path d="M 4.171875 0 L 1.1875 0 L 1.1875 -13.5 L 4.171875 -13.5 Z M 4.171875 0 "/></g></g></g><g fill="#009ccc" fill-opacity="1"><g transform="translate(294.012092, 224.952734)"><g><path d="M 4.125 -2.734375 L 5.03125 -2.734375 C 5.789062 -2.734375 6.457031 -2.910156 7.03125 -3.265625 C 7.613281 -3.628906 8.066406 -4.113281 8.390625 -4.71875 C 8.710938 -5.332031 8.875 -6.007812 8.875 -6.75 C 8.875 -7.507812 8.710938 -8.1875 8.390625 -8.78125 C 8.066406 -9.382812 7.613281 -9.863281 7.03125 -10.21875 C 6.457031 -10.570312 5.789062 -10.75 5.03125 -10.75 L 4.125 -10.75 Z M 1.1875 -13.5 L 5.203125 -13.5 C 6.160156 -13.5 7.046875 -13.328125 7.859375 -12.984375 C 8.671875 -12.640625 9.378906 -12.160156 9.984375 -11.546875 C 10.597656 -10.941406 11.070312 -10.226562 11.40625 -9.40625 C 11.75 -8.59375 11.921875 -7.707031 11.921875 -6.75 C 11.921875 -5.800781 11.75 -4.914062 11.40625 -4.09375 C 11.070312 -3.269531 10.601562 -2.550781 10 -1.9375 C 9.394531 -1.332031 8.679688 -0.859375 7.859375 -0.515625 C 7.046875 -0.171875 6.160156 0 5.203125 0 L 1.1875 0 Z M 1.1875 -13.5 "/></g></g></g><g fill="#009ccc" fill-opacity="1"><g transform="translate(310.148353, 224.952734)"><g><path d="M 8.546875 -5.15625 L 6.828125 -9.96875 L 5.125 -5.15625 Z M 13.578125 0 L 10.390625 0 L 9.40625 -2.71875 L 4.265625 -2.71875 L 3.296875 0 L 0.09375 0 L 5.578125 -13.5 L 8.109375 -13.5 Z M 13.578125 0 "/></g></g></g><g fill="#009ccc" fill-opacity="1"><g transform="translate(327.356134, 224.952734)"><g><path d="M 5.140625 0 L 5.140625 -6.453125 L 0.15625 -13.5 L 3.71875 -13.5 L 6.640625 -8.84375 L 9.546875 -13.5 L 13.109375 -13.5 L 8.125 -6.453125 L 8.125 0 Z M 5.140625 0 "/></g></g></g><g fill="#009ccc" fill-opacity="1"><g transform="translate(344.147218, 224.952734)"><g><path d="M 6.4375 -2.109375 C 6.75 -2.109375 7.085938 -2.15625 7.453125 -2.25 C 7.828125 -2.351562 8.148438 -2.519531 8.421875 -2.75 C 8.703125 -2.976562 8.84375 -3.289062 8.84375 -3.6875 C 8.84375 -4.0625 8.695312 -4.359375 8.40625 -4.578125 C 8.125 -4.804688 7.75 -4.992188 7.28125 -5.140625 C 6.820312 -5.285156 6.316406 -5.421875 5.765625 -5.546875 C 5.210938 -5.671875 4.660156 -5.820312 4.109375 -6 C 3.554688 -6.1875 3.046875 -6.425781 2.578125 -6.71875 C 2.117188 -7.007812 1.742188 -7.382812 1.453125 -7.84375 C 1.171875 -8.3125 1.03125 -8.898438 1.03125 -9.609375 C 1.03125 -10.316406 1.175781 -10.921875 1.46875 -11.421875 C 1.757812 -11.929688 2.144531 -12.351562 2.625 -12.6875 C 3.113281 -13.03125 3.65625 -13.285156 4.25 -13.453125 C 4.851562 -13.617188 5.460938 -13.703125 6.078125 -13.703125 C 7.003906 -13.703125 7.867188 -13.554688 8.671875 -13.265625 C 9.484375 -12.972656 10.144531 -12.507812 10.65625 -11.875 C 11.164062 -11.25 11.429688 -10.421875 11.453125 -9.390625 L 8.578125 -9.390625 C 8.492188 -10.097656 8.25 -10.585938 7.84375 -10.859375 C 7.4375 -11.128906 6.859375 -11.265625 6.109375 -11.265625 C 5.835938 -11.265625 5.546875 -11.21875 5.234375 -11.125 C 4.921875 -11.03125 4.65625 -10.878906 4.4375 -10.671875 C 4.21875 -10.460938 4.109375 -10.1875 4.109375 -9.84375 C 4.109375 -9.5 4.25 -9.226562 4.53125 -9.03125 C 4.820312 -8.832031 5.195312 -8.664062 5.65625 -8.53125 C 6.125 -8.40625 6.632812 -8.28125 7.1875 -8.15625 C 7.738281 -8.039062 8.289062 -7.894531 8.84375 -7.71875 C 9.394531 -7.550781 9.898438 -7.316406 10.359375 -7.015625 C 10.828125 -6.722656 11.203125 -6.335938 11.484375 -5.859375 C 11.773438 -5.378906 11.921875 -4.769531 11.921875 -4.03125 C 11.921875 -3.238281 11.757812 -2.5625 11.4375 -2 C 11.125 -1.445312 10.695312 -1 10.15625 -0.65625 C 9.625 -0.320312 9.019531 -0.078125 8.34375 0.078125 C 7.675781 0.234375 7 0.3125 6.3125 0.3125 C 5.320312 0.3125 4.390625 0.144531 3.515625 -0.1875 C 2.648438 -0.519531 1.945312 -1.035156 1.40625 -1.734375 C 0.875 -2.441406 0.601562 -3.347656 0.59375 -4.453125 L 3.609375 -4.453125 C 3.648438 -3.640625 3.945312 -3.046875 4.5 -2.671875 C 5.0625 -2.296875 5.707031 -2.109375 6.4375 -2.109375 Z M 6.4375 -2.109375 "/></g></g></g><g fill="#1b468f" fill-opacity="0.4"><g transform="translate(143.233363, 197.6071)"><g><path d="M 71.734375 -68.328125 L 71.734375 -54.65625 L 44.40625 -54.65625 L 44.40625 0 L 30.75 0 L 30.75 -54.65625 L 3.421875 -54.65625 L 3.421875 -68.328125 Z M 71.734375 -68.328125 "/></g></g></g><g fill="#1b468f" fill-opacity="0.4"><g transform="translate(218.36955, 197.6071)"><g><path d="M 71.734375 0 L 17.078125 0 C 14.578125 0 12.285156 -0.609375 10.203125 -1.828125 C 8.128906 -3.054688 6.476562 -4.707031 5.25 -6.78125 C 4.03125 -8.863281 3.421875 -11.160156 3.421875 -13.671875 L 3.421875 -54.65625 C 3.421875 -57.164062 4.03125 -59.457031 5.25 -61.53125 C 6.476562 -63.613281 8.128906 -65.265625 10.203125 -66.484375 C 12.285156 -67.710938 14.578125 -68.328125 17.078125 -68.328125 L 71.734375 -68.328125 L 71.734375 -54.65625 L 17.078125 -54.65625 L 17.078125 -13.671875 L 71.734375 -13.671875 Z M 71.734375 0 "/></g></g></g><g fill="#1b468f" fill-opacity="0.4"><g transform="translate(293.505737, 197.6071)"><g><path d="M 71.734375 -68.328125 L 71.734375 -54.65625 L 17.078125 -54.65625 L 17.078125 -41 L 58.078125 -41 C 60.578125 -41 62.863281 -40.382812 64.9375 -39.15625 C 67.019531 -37.9375 68.671875 -36.285156 69.890625 -34.203125 C 71.117188 -32.128906 71.734375 -29.835938 71.734375 -27.328125 L 71.734375 -13.671875 C 71.734375 -11.160156 71.117188 -8.863281 69.890625 -6.78125 C 68.671875 -4.707031 67.019531 -3.054688 64.9375 -1.828125 C 62.863281 -0.609375 60.578125 0 58.078125 0 L 3.421875 0 L 3.421875 -13.671875 L 58.078125 -13.671875 L 58.078125 -27.328125 L 17.078125 -27.328125 C 14.578125 -27.328125 12.285156 -27.9375 10.203125 -29.15625 C 8.128906 -30.382812 6.476562 -32.035156 5.25 -34.109375 C 4.03125 -36.191406 3.421875 -38.488281 3.421875 -41 L 3.421875 -54.65625 C 3.421875 -57.164062 4.03125 -59.457031 5.25 -61.53125 C 6.476562 -63.613281 8.128906 -65.265625 10.203125 -66.484375 C 12.285156 -67.710938 14.578125 -68.328125 17.078125 -68.328125 Z M 71.734375 -68.328125 "/></g></g></g><g fill="#1b468f" fill-opacity="1"><g transform="translate(139.458404, 193.832138)"><g><path d="M 71.734375 -68.328125 L 71.734375 -54.65625 L 44.40625 -54.65625 L 44.40625 0 L 30.75 0 L 30.75 -54.65625 L 3.421875 -54.65625 L 3.421875 -68.328125 Z M 71.734375 -68.328125 "/></g></g></g><g fill="#1b468f" fill-opacity="1"><g transform="translate(214.59459, 193.832138)"><g><path d="M 71.734375 0 L 17.078125 0 C 14.578125 0 12.285156 -0.609375 10.203125 -1.828125 C 8.128906 -3.054688 6.476562 -4.707031 5.25 -6.78125 C 4.03125 -8.863281 3.421875 -11.160156 3.421875 -13.671875 L 3.421875 -54.65625 C 3.421875 -57.164062 4.03125 -59.457031 5.25 -61.53125 C 6.476562 -63.613281 8.128906 -65.265625 10.203125 -66.484375 C 12.285156 -67.710938 14.578125 -68.328125 17.078125 -68.328125 L 71.734375 -68.328125 L 71.734375 -54.65625 L 17.078125 -54.65625 L 17.078125 -13.671875 L 71.734375 -13.671875 Z M 71.734375 0 "/></g></g></g><g fill="#1b468f" fill-opacity="1"><g transform="translate(289.730777, 193.832138)"><g><path d="M 71.734375 -68.328125 L 71.734375 -54.65625 L 17.078125 -54.65625 L 17.078125 -41 L 58.078125 -41 C 60.578125 -41 62.863281 -40.382812 64.9375 -39.15625 C 67.019531 -37.9375 68.671875 -36.285156 69.890625 -34.203125 C 71.117188 -32.128906 71.734375 -29.835938 71.734375 -27.328125 L 71.734375 -13.671875 C 71.734375 -11.160156 71.117188 -8.863281 69.890625 -6.78125 C 68.671875 -4.707031 67.019531 -3.054688 64.9375 -1.828125 C 62.863281 -0.609375 60.578125 0 58.078125 0 L 3.421875 0 L 3.421875 -13.671875 L 58.078125 -13.671875 L 58.078125 -27.328125 L 17.078125 -27.328125 C 14.578125 -27.328125 12.285156 -27.9375 10.203125 -29.15625 C 8.128906 -30.382812 6.476562 -32.035156 5.25 -34.109375 C 4.03125 -36.191406 3.421875 -38.488281 3.421875 -41 L 3.421875 -54.65625 C 3.421875 -57.164062 4.03125 -59.457031 5.25 -61.53125 C 6.476562 -63.613281 8.128906 -65.265625 10.203125 -66.484375 C 12.285156 -67.710938 14.578125 -68.328125 17.078125 -68.328125 Z M 71.734375 -68.328125 "/></g></g></g><g clip-path="url(#318d594b54)"><g clip-path="url(#f8c9ec9676)"><g clip-path="url(#c783fe0e5a)"><path fill="#ffffff" d="M 38.609375 212.867188 C 38.867188 212.769531 39.121094 212.671875 39.378906 212.578125 L 44.28125 210.886719 C 44.480469 211.117188 44.683594 211.34375 44.890625 211.570312 C 56.003906 223.707031 72.695312 230.214844 89.933594 227.789062 C 89.515625 227.898438 89.097656 228.003906 88.671875 228.105469 C 88.058594 228.261719 87.433594 228.398438 86.808594 228.53125 C 81.109375 229.691406 75.4375 229.867188 69.96875 229.164062 C 58.742188 227.71875 48.378906 222.582031 40.453125 214.78125 C 39.824219 214.160156 39.207031 213.523438 38.609375 212.867188 Z M 38.609375 212.867188 " fill-opacity="1" fill-rule="evenodd"/></g></g></g><g clip-path="url(#6b2b62a2ac)"><g clip-path="url(#5db3e939af)"><g clip-path="url(#7d5cee99ab)"><path fill="#1b468f" d="M 9.261719 194.664062 C 9.507812 194.574219 9.820312 194.589844 10.195312 194.71875 C 11.097656 195.007812 12.355469 195.882812 13.84375 197.171875 C 13.898438 197.21875 13.949219 197.265625 13.996094 197.308594 C 14.863281 198.070312 15.800781 198.960938 16.785156 199.957031 C 17.546875 200.738281 18.339844 201.578125 19.15625 202.46875 L 21.3125 202.351562 L 25.453125 202.128906 L 28.402344 201.972656 L 28.402344 201.976562 L 33.636719 201.691406 L 36.761719 201.523438 L 37.855469 201.472656 L 39.101562 201.40625 L 39.457031 201.386719 C 40.039062 201.402344 40.609375 201.664062 41.003906 202.152344 C 41.722656 203.039062 41.589844 204.347656 40.699219 205.066406 C 40.609375 205.140625 40.519531 205.203125 40.421875 205.257812 C 40.140625 205.34375 39.855469 205.433594 39.574219 205.523438 C 39.5 205.546875 39.425781 205.570312 39.351562 205.59375 C 39.253906 205.621094 39.152344 205.648438 39.054688 205.683594 L 33.53125 207.585938 C 31.21875 208.445312 28.949219 209.363281 26.738281 210.339844 C 26.65625 210.375 26.578125 210.40625 26.5 210.441406 L 34.777344 220.644531 L 30.253906 224.3125 C 29.386719 223.582031 28.539062 222.824219 27.710938 222.046875 C 26.40625 220.820312 25.144531 219.539062 23.941406 218.207031 L 21.15625 214.777344 C 21.140625 214.800781 21.121094 214.828125 21.105469 214.851562 C 19.664062 216.859375 18.265625 218.9375 16.914062 221.066406 L 14.300781 225.433594 L 13.914062 226.082031 C 13.859375 226.171875 13.8125 226.261719 13.761719 226.355469 C 13.726562 226.421875 13.6875 226.488281 13.652344 226.554688 C 13.503906 226.8125 13.359375 227.074219 13.210938 227.332031 C 13.140625 227.414062 13.0625 227.492188 12.972656 227.5625 C 12.082031 228.285156 10.777344 228.148438 10.054688 227.261719 C 9.660156 226.773438 9.523438 226.160156 9.625 225.589844 L 9.71875 225.246094 L 10.035156 224.042969 L 10.3125 222.984375 L 10.953125 220.585938 L 11.121094 219.960938 L 12.476562 214.898438 L 12.476562 214.894531 L 13.238281 212.039062 L 14.863281 205.949219 C 14.160156 204.96875 13.503906 204.023438 12.898438 203.113281 C 12.125 201.945312 11.445312 200.84375 10.878906 199.839844 C 10.847656 199.785156 10.808594 199.722656 10.777344 199.664062 C 9.816406 197.941406 9.222656 196.527344 9.125 195.585938 C 9.082031 195.191406 9.128906 194.882812 9.261719 194.664062 Z M 9.261719 194.664062 " fill-opacity="1" fill-rule="evenodd"/></g></g></g><g clip-path="url(#93df113cc3)"><g clip-path="url(#44974c085b)"><g clip-path="url(#6b74228123)"><path fill="#1b468f" d="M 19.519531 212.757812 C 20.035156 213.46875 20.5625 214.167969 21.105469 214.851562 C 22.015625 216.003906 22.960938 217.125 23.941406 218.207031 C 25.144531 219.542969 26.402344 220.820312 27.707031 222.046875 C 28.535156 222.824219 29.382812 223.578125 30.25 224.3125 C 45.148438 236.925781 65.476562 242.828125 86.078125 238.617188 C 101.246094 235.515625 114.121094 227.4375 123.347656 216.425781 C 123.140625 216.636719 122.925781 216.847656 122.707031 217.042969 L 122.371094 217.363281 C 122.082031 217.632812 121.785156 217.910156 121.488281 218.175781 C 121.382812 218.265625 121.28125 218.363281 121.171875 218.457031 C 121.035156 218.578125 120.902344 218.699219 120.761719 218.816406 C 120.746094 218.832031 120.726562 218.847656 120.707031 218.863281 C 120.589844 218.96875 120.46875 219.074219 120.351562 219.179688 C 120.3125 219.210938 120.269531 219.246094 120.230469 219.28125 C 120.160156 219.335938 120.09375 219.398438 120.027344 219.453125 C 119.804688 219.640625 119.582031 219.832031 119.355469 220.023438 L 119.347656 220.03125 C 119.230469 220.125 119.105469 220.226562 118.984375 220.324219 L 118.785156 220.488281 C 90.867188 243.140625 49.875 238.871094 27.222656 210.953125 C 27.058594 210.75 26.894531 210.542969 26.734375 210.339844 C 26.652344 210.375 26.574219 210.40625 26.496094 210.441406 L 32.667969 218.046875 C 32.664062 218.042969 32.65625 218.039062 32.652344 218.035156 C 32.648438 218.03125 32.648438 218.03125 32.644531 218.027344 C 32.546875 217.933594 32.449219 217.832031 32.347656 217.738281 C 32.113281 217.503906 31.882812 217.273438 31.65625 217.039062 C 31.53125 216.917969 31.421875 216.796875 31.304688 216.675781 C 31.089844 216.457031 30.878906 216.238281 30.671875 216.011719 C 30.554688 215.886719 30.441406 215.765625 30.324219 215.636719 C 30.109375 215.402344 29.894531 215.171875 29.683594 214.9375 C 29.582031 214.820312 29.484375 214.707031 29.382812 214.589844 C 29.105469 214.277344 28.835938 213.964844 28.5625 213.644531 C 28.535156 213.609375 28.496094 213.570312 28.464844 213.53125 C 28.167969 213.171875 27.871094 212.8125 27.574219 212.449219 C 27.488281 212.332031 27.398438 212.21875 27.308594 212.101562 C 27.105469 211.847656 26.90625 211.59375 26.710938 211.339844 C 26.601562 211.207031 26.5 211.066406 26.398438 210.925781 C 26.21875 210.683594 26.035156 210.445312 25.855469 210.199219 C 25.753906 210.058594 25.648438 209.917969 25.550781 209.777344 C 25.359375 209.511719 25.171875 209.25 24.988281 208.988281 C 24.976562 208.96875 24.960938 208.945312 24.949219 208.929688 C 22.46875 209.558594 19.914062 209.792969 17.386719 209.644531 C 18.070312 210.703125 18.78125 211.742188 19.519531 212.757812 Z M 19.519531 212.757812 " fill-opacity="1" fill-rule="evenodd"/></g></g></g><g clip-path="url(#f62c23ff22)"><path fill="#1b468f" d="M 137.449219 173.429688 C 143.171875 173.570312 147.773438 178.261719 147.773438 184.015625 C 147.773438 189.773438 143.171875 194.464844 137.449219 194.605469 L 137.449219 194.371094 C 143.039062 194.226562 147.535156 189.644531 147.535156 184.015625 C 147.535156 178.390625 143.039062 173.808594 137.449219 173.664062 Z M 137.449219 173.429688 " fill-opacity="0.25" fill-rule="evenodd"/></g><g clip-path="url(#ccb0d8aa10)"><path fill="#1b468f" d="M 137.449219 174.695312 C 142.46875 174.839844 146.503906 178.960938 146.503906 184.015625 C 146.503906 189.074219 142.46875 193.195312 137.449219 193.335938 L 137.449219 192.992188 C 142.277344 192.847656 146.15625 188.882812 146.15625 184.015625 C 146.15625 179.152344 142.277344 175.1875 137.449219 175.042969 Z M 137.449219 174.695312 " fill-opacity="0.5" fill-rule="evenodd"/></g><g clip-path="url(#b3c97e1073)"><path fill="#1b468f" d="M 137.449219 175.910156 C 141.800781 176.050781 145.292969 179.628906 145.292969 184.015625 C 145.292969 188.40625 141.800781 191.984375 137.449219 192.125 L 137.449219 191.695312 C 141.5625 191.554688 144.863281 188.167969 144.863281 184.015625 C 144.863281 179.867188 141.5625 176.480469 137.449219 176.339844 Z M 137.449219 175.910156 " fill-opacity="0.8" fill-rule="evenodd"/></g><g clip-path="url(#8a3330e5f8)"><path fill="#1b468f" d="M 137.449219 177.039062 C 141.175781 177.179688 144.160156 180.253906 144.160156 184.015625 C 144.160156 187.78125 141.175781 190.851562 137.449219 190.996094 L 137.449219 190.367188 C 140.832031 190.226562 143.535156 187.433594 143.535156 184.015625 C 143.535156 180.597656 140.832031 177.808594 137.449219 177.667969 Z M 137.449219 177.039062 " fill-opacity="1" fill-rule="evenodd"/></g><g clip-path="url(#35181843c8)"><path fill="#1b468f" d="M 137.449219 178.160156 C 140.558594 178.300781 143.042969 180.871094 143.042969 184.015625 C 143.042969 187.160156 140.558594 189.730469 137.449219 189.871094 Z M 137.449219 178.160156 " fill-opacity="1" fill-rule="evenodd"/></g><g clip-path="url(#2a30d01f22)"><path fill="#00adef" d="M 137.449219 179.582031 C 139.804688 179.6875 141.683594 181.632812 141.683594 184.015625 C 141.683594 186.398438 139.804688 188.347656 137.449219 188.453125 Z M 137.449219 179.582031 " fill-opacity="0.2" fill-rule="evenodd"/></g><g clip-path="url(#2f1a639ac9)"><path fill="#000000" d="M 137.449219 180.726562 C 139.195312 180.804688 140.589844 182.25 140.589844 184.015625 C 140.589844 185.785156 139.195312 187.226562 137.449219 187.308594 Z M 137.449219 180.726562 " fill-opacity="0.2" fill-rule="evenodd"/></g><g clip-path="url(#ec0694d5e2)"><path fill="#1b468f" d="M 137.445312 173.429688 C 131.722656 173.570312 127.121094 178.261719 127.121094 184.015625 C 127.121094 189.773438 131.722656 194.464844 137.445312 194.605469 L 137.445312 194.371094 C 131.851562 194.226562 127.355469 189.644531 127.355469 184.015625 C 127.355469 178.390625 131.851562 173.808594 137.445312 173.664062 Z M 137.445312 173.429688 " fill-opacity="0.25" fill-rule="evenodd"/></g><g clip-path="url(#190db9a5dc)"><path fill="#1b468f" d="M 137.445312 174.695312 C 132.421875 174.839844 128.390625 178.960938 128.390625 184.015625 C 128.390625 189.074219 132.421875 193.195312 137.445312 193.335938 L 137.445312 192.992188 C 132.613281 192.847656 128.734375 188.882812 128.734375 184.015625 C 128.734375 179.152344 132.613281 175.1875 137.445312 175.042969 Z M 137.445312 174.695312 " fill-opacity="0.5" fill-rule="evenodd"/></g><g clip-path="url(#7974a3243e)"><path fill="#1b468f" d="M 137.445312 175.910156 C 133.089844 176.050781 129.601562 179.628906 129.601562 184.015625 C 129.601562 188.40625 133.089844 191.984375 137.445312 192.125 L 137.445312 191.695312 C 133.328125 191.554688 130.03125 188.167969 130.03125 184.015625 C 130.03125 179.867188 133.328125 176.480469 137.445312 176.339844 Z M 137.445312 175.910156 " fill-opacity="0.8" fill-rule="evenodd"/></g><g clip-path="url(#4366a4b6d7)"><path fill="#1b468f" d="M 137.445312 177.039062 C 133.714844 177.179688 130.730469 180.253906 130.730469 184.015625 C 130.730469 187.78125 133.714844 190.851562 137.445312 190.996094 L 137.445312 190.367188 C 134.0625 190.226562 131.355469 187.433594 131.355469 184.015625 C 131.355469 180.597656 134.0625 177.808594 137.445312 177.667969 Z M 137.445312 177.039062 " fill-opacity="1" fill-rule="evenodd"/></g><g clip-path="url(#8235d9d60f)"><path fill="#1b468f" d="M 137.445312 178.160156 C 134.332031 178.300781 131.851562 180.871094 131.851562 184.015625 C 131.851562 187.160156 134.332031 189.730469 137.445312 189.871094 Z M 137.445312 178.160156 " fill-opacity="1" fill-rule="evenodd"/></g><g clip-path="url(#4b8d209f7d)"><path fill="#00adef" d="M 137.445312 179.582031 C 135.089844 179.6875 133.207031 181.632812 133.207031 184.015625 C 133.207031 186.398438 135.089844 188.347656 137.445312 188.453125 Z M 137.445312 179.582031 " fill-opacity="0.2" fill-rule="evenodd"/></g><g clip-path="url(#e6c421330f)"><path fill="#000000" d="M 137.445312 180.726562 C 135.695312 180.804688 134.300781 182.25 134.300781 184.015625 C 134.300781 185.785156 135.695312 187.226562 137.445312 187.308594 Z M 137.445312 180.726562 " fill-opacity="0.2" fill-rule="evenodd"/></g><g clip-path="url(#7052bb9a97)"><path fill="#1b468f" d="M 10.320312 152.242188 C 16.042969 152.386719 20.644531 157.074219 20.644531 162.832031 C 20.644531 168.589844 16.042969 173.277344 10.320312 173.421875 L 10.320312 173.183594 C 15.910156 173.042969 20.40625 168.457031 20.40625 162.832031 C 20.40625 157.207031 15.910156 152.621094 10.320312 152.480469 Z M 10.320312 152.242188 " fill-opacity="0.25" fill-rule="evenodd"/></g><g clip-path="url(#13d9fda1aa)"><path fill="#1b468f" d="M 10.320312 153.511719 C 15.34375 153.652344 19.375 157.777344 19.375 162.832031 C 19.375 167.886719 15.34375 172.007812 10.320312 172.152344 L 10.320312 171.804688 C 15.152344 171.664062 19.027344 167.695312 19.027344 162.832031 C 19.027344 157.96875 15.152344 154 10.320312 153.859375 Z M 10.320312 153.511719 " fill-opacity="0.5" fill-rule="evenodd"/></g><g clip-path="url(#22aec1ae9c)"><path fill="#1b468f" d="M 10.320312 154.722656 C 14.671875 154.867188 18.164062 158.445312 18.164062 162.832031 C 18.164062 167.21875 14.671875 170.796875 10.320312 170.941406 L 10.320312 170.507812 C 14.4375 170.367188 17.734375 166.980469 17.734375 162.832031 C 17.734375 158.679688 14.4375 155.296875 10.320312 155.152344 Z M 10.320312 154.722656 " fill-opacity="0.8" fill-rule="evenodd"/></g><g clip-path="url(#ce219a72e4)"><path fill="#1b468f" d="M 10.320312 155.855469 C 14.050781 155.996094 17.035156 159.066406 17.035156 162.832031 C 17.035156 166.59375 14.050781 169.667969 10.320312 169.808594 L 10.320312 169.183594 C 13.703125 169.042969 16.40625 166.25 16.40625 162.832031 C 16.40625 159.414062 13.703125 156.621094 10.320312 156.480469 Z M 10.320312 155.855469 " fill-opacity="1" fill-rule="evenodd"/></g><g clip-path="url(#34dcb951b4)"><path fill="#1b468f" d="M 10.320312 156.976562 C 13.429688 157.117188 15.914062 159.6875 15.914062 162.832031 C 15.914062 165.976562 13.429688 168.546875 10.320312 168.6875 Z M 10.320312 156.976562 " fill-opacity="1" fill-rule="evenodd"/></g><g clip-path="url(#99469e1966)"><path fill="#00adef" d="M 10.320312 158.394531 C 12.675781 158.503906 14.558594 160.449219 14.558594 162.832031 C 14.558594 165.214844 12.675781 167.160156 10.320312 167.265625 Z M 10.320312 158.394531 " fill-opacity="0.2" fill-rule="evenodd"/></g><g clip-path="url(#7d6d838a06)"><path fill="#000000" d="M 10.320312 159.542969 C 12.066406 159.621094 13.460938 161.0625 13.460938 162.832031 C 13.460938 164.597656 12.066406 166.042969 10.320312 166.121094 Z M 10.320312 159.542969 " fill-opacity="0.2" fill-rule="evenodd"/></g><g clip-path="url(#3736421a66)"><path fill="#1b468f" d="M 10.316406 152.242188 C 4.59375 152.386719 -0.0078125 157.074219 -0.0078125 162.832031 C -0.0078125 168.589844 4.59375 173.277344 10.316406 173.421875 L 10.316406 173.183594 C 4.726562 173.042969 0.230469 168.457031 0.230469 162.832031 C 0.230469 157.207031 4.726562 152.621094 10.316406 152.480469 Z M 10.316406 152.242188 " fill-opacity="0.25" fill-rule="evenodd"/></g><g clip-path="url(#4db520f326)"><path fill="#1b468f" d="M 10.316406 153.511719 C 5.292969 153.652344 1.261719 157.777344 1.261719 162.832031 C 1.261719 167.886719 5.292969 172.007812 10.316406 172.152344 L 10.316406 171.804688 C 5.484375 171.664062 1.609375 167.695312 1.609375 162.832031 C 1.609375 157.96875 5.484375 154 10.316406 153.859375 Z M 10.316406 153.511719 " fill-opacity="0.5" fill-rule="evenodd"/></g><g clip-path="url(#ecb788e88c)"><path fill="#1b468f" d="M 10.316406 154.722656 C 5.964844 154.867188 2.472656 158.445312 2.472656 162.832031 C 2.472656 167.21875 5.964844 170.796875 10.316406 170.941406 L 10.316406 170.507812 C 6.199219 170.367188 2.902344 166.980469 2.902344 162.832031 C 2.902344 158.679688 6.199219 155.296875 10.316406 155.152344 Z M 10.316406 154.722656 " fill-opacity="0.8" fill-rule="evenodd"/></g><g clip-path="url(#a2cf205d36)"><path fill="#1b468f" d="M 10.316406 155.855469 C 6.585938 155.996094 3.601562 159.066406 3.601562 162.832031 C 3.601562 166.59375 6.585938 169.667969 10.316406 169.808594 L 10.316406 169.183594 C 6.933594 169.042969 4.230469 166.25 4.230469 162.832031 C 4.230469 159.414062 6.933594 156.621094 10.316406 156.480469 Z M 10.316406 155.855469 " fill-opacity="1" fill-rule="evenodd"/></g><g clip-path="url(#998557759c)"><path fill="#1b468f" d="M 10.316406 156.976562 C 7.207031 157.117188 4.722656 159.6875 4.722656 162.832031 C 4.722656 165.976562 7.207031 168.546875 10.316406 168.6875 Z M 10.316406 156.976562 " fill-opacity="1" fill-rule="evenodd"/></g><g clip-path="url(#1282d02131)"><path fill="#00adef" d="M 10.316406 158.394531 C 7.960938 158.503906 6.078125 160.449219 6.078125 162.832031 C 6.078125 165.214844 7.960938 167.160156 10.316406 167.265625 Z M 10.316406 158.394531 " fill-opacity="0.2" fill-rule="evenodd"/></g><g clip-path="url(#0231b4aeaa)"><path fill="#000000" d="M 10.316406 159.542969 C 8.570312 159.621094 7.171875 161.0625 7.171875 162.832031 C 7.171875 164.597656 8.570312 166.042969 10.316406 166.121094 Z M 10.316406 159.542969 " fill-opacity="0.2" fill-rule="evenodd"/></g><path fill="#1b468f" d="M 99.585938 196.984375 C 99.019531 196.582031 98.347656 196.238281 97.613281 195.933594 C 99.082031 194.386719 100.347656 192.617188 101.773438 191.011719 C 106.578125 191.261719 109.421875 193.320312 108.472656 197.503906 C 107.34375 198.523438 106.324219 199.65625 105.210938 200.695312 C 104.183594 201.652344 103.050781 202.449219 101.925781 203.261719 C 102.640625 201.070312 102.1875 198.816406 99.585938 196.984375 " fill-opacity="1" fill-rule="nonzero"/><path fill="#1b468f" d="M 100.207031 140.757812 C 99.515625 139.972656 98.691406 139.335938 97.878906 138.679688 C 97.449219 138.328125 97.050781 137.941406 96.585938 137.640625 C 96.179688 137.378906 95.777344 137.128906 95.414062 136.820312 C 95.355469 136.769531 95.316406 136.71875 95.289062 136.667969 C 94.757812 136.347656 94.230469 136.039062 93.773438 135.765625 C 86.585938 132.050781 75.511719 133.28125 65.300781 136.058594 C 65.605469 136.671875 65.890625 137.300781 66.105469 137.957031 C 66.257812 138.417969 66.355469 138.882812 66.402344 139.351562 C 78.667969 137.164062 91.933594 136.5625 100.621094 141.210938 C 100.480469 141.0625 100.34375 140.914062 100.207031 140.757812 " fill-opacity="1" fill-rule="nonzero"/><path fill="#1b468f" d="M 114.3125 162.527344 C 114.097656 161.347656 113.882812 160.171875 113.589844 159.007812 C 113.335938 157.988281 112.882812 157.058594 112.546875 156.070312 C 112.394531 155.980469 112.300781 155.820312 112.355469 155.613281 C 112.1875 155.242188 112.003906 154.847656 111.804688 154.410156 C 107.835938 146.65625 95.789062 145.347656 82 147.488281 C 81.464844 150.066406 80.585938 152.546875 79.71875 155.03125 C 102.789062 153.054688 111.453125 158.691406 114.613281 163.988281 C 114.503906 163.503906 114.402344 163.015625 114.3125 162.527344 " fill-opacity="1" fill-rule="nonzero"/><path fill="#1b468f" d="M 114.953125 185.128906 C 115.113281 184.539062 115.375 183.933594 115.457031 183.332031 C 115.515625 182.910156 115.535156 182.535156 115.773438 182.195312 C 115.910156 181.457031 116.035156 180.722656 116.148438 180.089844 C 117.15625 170.289062 108.507812 166.886719 96.363281 167.398438 C 96.214844 167.808594 96.058594 168.21875 95.886719 168.621094 C 94.652344 171.511719 92.882812 174.109375 91.175781 176.738281 C 107.5 176.378906 114.824219 180.9375 113.019531 190.40625 C 113.226562 189.992188 113.425781 189.574219 113.609375 189.144531 C 113.628906 189.09375 113.65625 189.050781 113.683594 189.015625 C 114.042969 187.703125 114.589844 186.445312 114.953125 185.128906 " fill-opacity="1" fill-rule="nonzero"/><path fill="#00adef" d="M 33.167969 153 C 43.824219 149.472656 51.921875 136.683594 47.386719 138.15625 C 35.808594 141.917969 33.167969 153 33.074219 153.027344 C 33.101562 153.019531 33.140625 153.007812 33.167969 153 " fill-opacity="1" fill-rule="nonzero"/><g clip-path="url(#584c8efbad)"><path fill="#00adef" d="M 59.511719 137.203125 C 59.140625 135.179688 56.707031 134.964844 53.164062 136.640625 C 54.78125 135.035156 57.570312 133.851562 59.636719 133.28125 C 67.253906 131.179688 72.761719 133.894531 68.382812 141.945312 C 61.445312 154.6875 40.113281 166.808594 29.015625 168.230469 C 29.015625 168.230469 59.699219 144.027344 59.511719 137.203125 " fill-opacity="1" fill-rule="nonzero"/></g><path fill="#00adef" d="M 31.703125 190.546875 C 43.714844 189.707031 88.292969 163.601562 90.539062 141.988281 C 91.449219 133.214844 82.972656 131.449219 80.167969 130.972656 C 79.175781 130.800781 77.847656 130.609375 76.847656 130.511719 C 66.46875 129.484375 58.839844 132.445312 58.839844 132.445312 C 66.761719 130.648438 83.851562 128.09375 77.414062 143.03125 C 69.527344 159.382812 31.703125 190.546875 31.703125 190.546875 " fill-opacity="1" fill-rule="nonzero"/><path fill="#00adef" d="M 45.425781 208.878906 C 57.660156 209.871094 117.308594 171.023438 106.921875 147.617188 C 106.628906 146.957031 106.140625 145.851562 104.664062 144.207031 C 104.664062 144.207031 103.335938 142.835938 102.871094 142.402344 C 99.628906 139.355469 99.394531 139.351562 97.265625 137.898438 C 96.222656 137.25 94.84375 136.363281 93.773438 135.765625 C 98.21875 138.5625 101.574219 142.746094 96.082031 154.277344 C 84.699219 175.902344 45.425781 208.878906 45.425781 208.878906 " fill-opacity="1" fill-rule="nonzero"/><path fill="#00adef" d="M 110.015625 170.25 C 112.234375 165.558594 114.382812 160.074219 111.804688 154.410156 C 113.714844 158.46875 114.117188 159.378906 115.1875 163.402344 C 115.585938 164.886719 115.898438 166.921875 116.164062 168.4375 C 118.746094 188.617188 79.304688 215.015625 65.632812 217.679688 C 65.632812 217.679688 101.921875 185.511719 110.015625 170.25 " fill-opacity="1" fill-rule="nonzero"/><path fill="#00adef" d="M 96.355469 211.957031 C 103.421875 207.125 107.097656 202.835938 111.007812 195.589844 C 111.625 194.449219 112.378906 192.898438 112.910156 191.71875 C 114.375 187.964844 114.527344 187.574219 115.246094 184.796875 C 115.542969 183.390625 115.929688 181.511719 116.148438 180.089844 C 115.605469 182.742188 115.425781 183.636719 113.652344 187.171875 C 104.085938 203.964844 89.035156 215.34375 80.765625 217.472656 C 80.765625 217.472656 86.402344 218.757812 96.355469 211.957031 " fill-opacity="1" fill-rule="nonzero"/><g clip-path="url(#d37a610ecc)"><g clip-path="url(#59feec6c8f)"><g clip-path="url(#a4f029df8e)"><path fill="#ffffff" d="M 109.160156 133.984375 C 108.902344 134.082031 108.644531 134.179688 108.386719 134.273438 L 103.488281 135.964844 C 103.285156 135.734375 103.082031 135.507812 102.875 135.285156 C 91.761719 123.144531 75.074219 116.640625 57.832031 119.066406 C 58.253906 118.953125 58.667969 118.847656 59.09375 118.746094 C 59.710938 118.59375 60.335938 118.453125 60.960938 118.320312 C 66.65625 117.160156 72.332031 116.984375 77.796875 117.691406 C 89.027344 119.132812 99.386719 124.269531 107.316406 132.070312 C 107.945312 132.691406 108.558594 133.332031 109.160156 133.984375 Z M 109.160156 133.984375 " fill-opacity="1" fill-rule="evenodd"/></g></g></g><g clip-path="url(#9248d9d940)"><g clip-path="url(#97e203ea79)"><g clip-path="url(#75c68dbad6)"><path fill="#1b468f" d="M 138.503906 152.191406 C 138.257812 152.277344 137.949219 152.261719 137.574219 152.136719 C 136.667969 151.84375 135.410156 150.96875 133.921875 149.679688 C 133.871094 149.636719 133.816406 149.585938 133.769531 149.542969 C 132.902344 148.78125 131.964844 147.890625 130.984375 146.894531 C 130.21875 146.113281 129.425781 145.273438 128.613281 144.386719 L 126.457031 144.5 L 122.316406 144.722656 L 119.367188 144.882812 L 119.367188 144.875 L 114.132812 145.164062 L 111.007812 145.328125 L 109.914062 145.378906 L 108.667969 145.449219 L 108.3125 145.46875 C 107.730469 145.449219 107.160156 145.1875 106.765625 144.703125 C 106.042969 143.8125 106.179688 142.507812 107.070312 141.785156 C 107.160156 141.710938 107.25 141.648438 107.347656 141.597656 C 107.628906 141.507812 107.914062 141.417969 108.195312 141.328125 C 108.269531 141.308594 108.34375 141.28125 108.414062 141.257812 C 108.515625 141.230469 108.617188 141.203125 108.710938 141.167969 L 114.238281 139.265625 C 116.550781 138.40625 118.820312 137.488281 121.03125 136.511719 C 121.109375 136.480469 121.191406 136.445312 121.269531 136.410156 L 112.992188 126.210938 L 117.515625 122.539062 C 118.382812 123.273438 119.230469 124.027344 120.058594 124.804688 C 121.363281 126.03125 122.621094 127.3125 123.828125 128.644531 L 126.609375 132.078125 C 126.628906 132.050781 126.644531 132.027344 126.664062 132 C 128.105469 129.992188 129.503906 127.914062 130.855469 125.785156 L 133.46875 121.417969 L 133.855469 120.769531 C 133.90625 120.683594 133.953125 120.589844 134.007812 120.496094 C 134.042969 120.429688 134.082031 120.363281 134.117188 120.296875 C 134.261719 120.039062 134.410156 119.777344 134.554688 119.519531 C 134.628906 119.4375 134.707031 119.359375 134.796875 119.289062 C 135.6875 118.566406 136.992188 118.703125 137.714844 119.589844 C 138.109375 120.078125 138.246094 120.691406 138.144531 121.261719 L 138.050781 121.605469 L 137.730469 122.808594 L 137.453125 123.871094 L 136.816406 126.265625 L 136.648438 126.894531 L 135.289062 131.957031 L 135.292969 131.957031 L 134.53125 134.8125 L 132.90625 140.902344 C 133.609375 141.882812 134.265625 142.832031 134.871094 143.742188 C 135.644531 144.90625 136.324219 146.007812 136.886719 147.011719 C 136.921875 147.066406 136.957031 147.128906 136.992188 147.191406 C 137.953125 148.910156 138.546875 150.324219 138.640625 151.269531 C 138.6875 151.660156 138.640625 151.96875 138.503906 152.191406 Z M 138.503906 152.191406 " fill-opacity="1" fill-rule="evenodd"/></g></g></g><g clip-path="url(#2e556cdd05)"><g clip-path="url(#48218b519e)"><g clip-path="url(#249dffd715)"><path fill="#1b468f" d="M 128.25 134.09375 C 127.734375 133.382812 127.207031 132.6875 126.664062 132 C 125.753906 130.847656 124.808594 129.726562 123.828125 128.644531 C 122.621094 127.3125 121.363281 126.03125 120.058594 124.804688 C 119.230469 124.027344 118.386719 123.273438 117.515625 122.539062 C 102.621094 109.925781 82.292969 104.027344 61.691406 108.238281 C 46.523438 111.335938 33.648438 119.417969 24.417969 130.425781 C 24.628906 130.214844 24.84375 130.003906 25.058594 129.808594 L 25.398438 129.488281 C 25.6875 129.21875 25.984375 128.945312 26.28125 128.675781 C 26.386719 128.585938 26.488281 128.492188 26.59375 128.394531 C 26.730469 128.273438 26.867188 128.152344 27.003906 128.035156 C 27.023438 128.019531 27.042969 128.003906 27.058594 127.988281 C 27.179688 127.882812 27.296875 127.777344 27.414062 127.671875 C 27.457031 127.640625 27.496094 127.609375 27.539062 127.570312 C 27.609375 127.515625 27.675781 127.457031 27.742188 127.398438 C 27.960938 127.210938 28.1875 127.023438 28.410156 126.832031 L 28.421875 126.824219 C 28.539062 126.726562 28.664062 126.625 28.785156 126.527344 L 28.984375 126.363281 C 56.902344 103.714844 97.894531 107.984375 120.546875 135.902344 C 120.710938 136.101562 120.875 136.308594 121.035156 136.511719 C 121.113281 136.476562 121.191406 136.445312 121.273438 136.410156 L 115.101562 128.804688 C 115.105469 128.808594 115.113281 128.8125 115.117188 128.816406 C 115.121094 128.820312 115.121094 128.820312 115.125 128.824219 C 115.222656 128.917969 115.320312 129.019531 115.421875 129.113281 C 115.65625 129.347656 115.886719 129.578125 116.113281 129.816406 C 116.234375 129.933594 116.347656 130.054688 116.464844 130.175781 C 116.679688 130.398438 116.890625 130.617188 117.09375 130.84375 C 117.210938 130.964844 117.328125 131.085938 117.445312 131.214844 C 117.65625 131.449219 117.871094 131.679688 118.082031 131.914062 C 118.183594 132.035156 118.285156 132.144531 118.386719 132.261719 C 118.664062 132.574219 118.933594 132.886719 119.203125 133.207031 C 119.234375 133.246094 119.269531 133.28125 119.304688 133.324219 C 119.597656 133.679688 119.898438 134.039062 120.195312 134.402344 C 120.28125 134.519531 120.371094 134.632812 120.460938 134.75 C 120.660156 135.003906 120.863281 135.257812 121.058594 135.511719 C 121.167969 135.644531 121.269531 135.785156 121.371094 135.925781 C 121.550781 136.167969 121.734375 136.410156 121.914062 136.652344 C 122.011719 136.792969 122.121094 136.9375 122.21875 137.074219 C 122.410156 137.339844 122.59375 137.601562 122.78125 137.867188 C 122.792969 137.882812 122.804688 137.90625 122.820312 137.921875 C 125.296875 137.292969 127.855469 137.058594 130.382812 137.207031 C 129.695312 136.148438 128.988281 135.109375 128.25 134.09375 Z M 128.25 134.09375 " fill-opacity="1" fill-rule="evenodd"/></g></g></g></svg>